<svg xmlns="http://www.w3.org/2000/svg" viewBox="0 0 48 48">
  <circle cx="24" cy="24" r="24" fill="#25D366"/>
  <path fill="white" d="M34.67 13.26A14.55 14.55 0 0 0 24 9.04C16.35 9.04 10.1 15.3 10.1 22.94c0 2.45.64 4.83 1.86 6.93l-1.97 7.19 7.38-1.94a14.59 14.59 0 0 0 6.63 1.59c7.65 0 13.9-6.25 13.9-13.9 0-3.72-1.44-7.2-4.07-9.55zM24 36.22a12.13 12.13 0 0 1-6.2-1.7l-.44-.27-4.57 1.2 1.22-4.46-.29-.46A12.04 12.04 0 0 1 11.9 22.94c0-6.67 5.43-12.1 12.1-12.1 3.23 0 6.27 1.26 8.55 3.55a12.01 12.01 0 0 1 3.55 8.57c0 6.67-5.43 12.1-12.1 12.1zm6.63-9.1c-.36-.18-2.14-.95-2.47-1.06-.33-.11-.57-.18-.81.18-.24.36-.93.95-1.14 1.14-.21.2-.42.22-.78.07-.36-.14-1.52-.5-2.9-1.6a10.96 10.96 0 0 1-2.01-2.23c-.21-.36-.02-.55.16-.73.16-.16.36-.42.54-.63.18-.21.24-.36.36-.6.12-.24.06-.45-.03-.63-.09-.18-1.14-2.77-1.57-3.79-.42-1-.84-.85-1.14-.87l-.97-.02c-.33 0-.87.12-1.32.6-.45.48-1.72 1.68-1.72 4.1 0 2.4 1.77 4.73 2.01 5.06.24.33 3.48 5.32 8.44 7.46.93.4 1.66.64 2.23.82.94.3 1.79.26 2.47.16.75-.12 2.32-.95 2.65-1.87.32-.92.32-1.7.22-1.87-.09-.17-.33-.28-.7-.46z"/>
</svg>
