<svg xmlns="http://www.w3.org/2000/svg" viewBox="0 0 48 48">
  <rect width="48" height="48" rx="11" fill="#0077FF"/>
  <path fill="white" d="M25.54 33.06H24c0 0-.45-.05-.68-.28-.2-.2-.19-.57-.19-.57s-.02-2.75 1.24-3.15c1.24-.4 2.83 2.65 4.51 3.82 1.25.87 2.21.68 2.21.68l4.44-.06s2.32-.14 1.22-1.97c-.09-.14-.65-1.37-3.37-3.87-2.84-2.62-2.46-2.2.96-6.73 2.08-2.77 2.91-4.46 2.65-5.19-.25-.7-1.84-.52-1.84-.52l-5 .03s-.37-.05-.64.11c-.27.15-.44.52-.44.52s-.8 2.14-1.87 3.97c-2.25 3.82-3.15 4.02-3.51 3.79-.85-.53-.64-2.18-.64-3.35 0-3.64.55-5.16-1.08-5.55-.54-.13-.95-.22-2.35-.23-1.8-.02-3.32.01-4.18.43-.57.27-1.01.87-.74.9.33.05 1.07.2 1.45.73.5.69.48 2.23.48 2.23s.29 4.3-.68 4.83c-.67.37-1.58-.38-3.54-3.84-1.01-1.74-1.77-3.67-1.77-3.67s-.15-.36-.41-.56c-.32-.24-.75-.3-.75-.3l-4.74.03s-.71.02-.97.33c-.23.27-.02.85-.02.85s3.72 8.7 7.93 13.09c3.86 4.03 8.25 3.77 8.25 3.77z"/>
</svg>
