<?xml version="1.0" encoding="UTF-8"?>
<svg xmlns="http://www.w3.org/2000/svg" version="1.1" xmlns:xlink="http://www.w3.org/1999/xlink" viewBox="0 0 805.98 1665.36">
  <!-- Generator: Adobe Illustrator 30.3.0, SVG Export Plug-In . SVG Version: 2.1.3 Build 182)  -->
  <defs>
    <style>
      .st0 {
        font-size: 353.27px;
        letter-spacing: .12em;
      }

      .st0, .st1, .st2, .st3, .st4, .st5 {
        font-family: YuGothicUI-Light, 'Yu Gothic UI';
        font-weight: 300;
      }

      .st0, .st1, .st2, .st4 {
        fill: #0772a1;
      }

      .st0, .st1, .st6, .st7, .st8, .st9, .st5 {
        display: none;
      }

      .st10 {
        stroke: #393939;
        stroke-width: 64.96px;
      }

      .st10, .st11, .st12, .st13 {
        fill: none;
      }

      .st10, .st14, .st12, .st13 {
        stroke-miterlimit: 10;
      }

      .st15 {
        fill: url(#_Безымянный_градиент_7);
      }

      .st1 {
        font-size: 200.73px;
      }

      .st14 {
        stroke: #0772a1;
        stroke-width: 36.09px;
      }

      .st14, .st12 {
        stroke-linecap: round;
      }

      .st12 {
        stroke: #010000;
        stroke-width: 20.44px;
      }

      .st13 {
        stroke: #bdccd4;
        stroke-width: 7.69px;
      }

      .st2 {
        font-size: 375.99px;
        letter-spacing: .05em;
      }

      .st6, .st9, .st5 {
        fill: #393939;
      }

      .st7 {
        opacity: .67;
      }

      .st3 {
        fill: #333;
        font-size: 58px;
      }

      .st16 {
        letter-spacing: .1em;
      }

      .st4 {
        font-size: 215.52px;
        letter-spacing: .1em;
      }

      .st9 {
        opacity: .96;
      }

      .st5 {
        font-size: 119.35px;
        letter-spacing: .05em;
      }

      .st17 {
        letter-spacing: .1em;
      }
    </style>
    <linearGradient id="_Безымянный_градиент_7" data-name="Безымянный градиент 7" x1="-631.01" y1="1240.83" x2="1409.93" y2="1240.83" gradientUnits="userSpaceOnUse">
      <stop offset="0" stop-color="#e6e6e6"/>
      <stop offset="1" stop-color="#d8e3ea"/>
    </linearGradient>
  </defs>
  <g id="_Слой_1" data-name="Слой_1">
    <g class="st8">
      <rect class="st15" x="-631.01" y="-389.09" width="2040.94" height="3259.84"/>
    </g>
    <g class="st7">
      <path class="st13" d="M3606.4,2990c-363.62-66.05-1285.36-179.06-2077.2,368.42-364.33,251.9-322.97,592.83-624.8,643.99-641.59,108.75-1194.15-1100.81-2102.63-1360.6-438.34-125.35-1093.06-67.76-1946.51,910.54"/>
      <path class="st13" d="M-3046.82,3290.76c805-910.95,1427.6-959.45,1853.19-841.42,866.38,240.27,1393.42,1373.78,2010.27,1263.14,318.19-57.07,297.79-361.16,666.89-603.84,769.42-505.9,1660.61-418.23,2052.92-391.32"/>
      <path class="st13" d="M-2948.9,3029.18c756.55-843.6,1346.99-882.98,1759.88-772.3,824.2,220.93,1325.71,1277.38,1917.91,1165.67,334.56-63.11,334.73-330.25,708.97-563.69,745.92-465.28,1607.64-401.99,2028.63-414.22"/>
      <path class="st13" d="M-2850.98,2767.6c708.1-776.26,1266.35-806.47,1666.56-703.19,781.93,201.79,1257.89,1180.26,1825.55,1068.21,350.94-69.27,371.29-299.43,751.06-523.54,721.36-425.7,1554.66-385.75,2004.35-437.12"/>
      <path class="st13" d="M-2753.06,2506.02c659.65-708.91,1185.66-729.91,1573.24-634.07C-440.26,2054.8,10.17,2954.46,553.38,2842.69c367.33-75.58,407.45-268.75,793.15-483.39,695.77-387.2,1501.68-369.5,1980.06-460.02"/>
      <path class="st13" d="M-2655.13,2244.43c611.21-641.57,1104.92-653.28,1479.93-564.96C-478.13,1843.65-53.22,2663.72,465.62,2552.76c383.7-82.06,443.21-238.28,835.23-443.24,669.17-349.85,1448.71-353.26,1955.78-482.92"/>
      <path class="st13" d="M-2557.21,1982.85c562.76-574.22,1024.13-576.57,1386.61-495.84,654.48,145.77,1053.91,885.5,1548.47,775.82,400.04-88.72,478.55-208.12,877.32-403.08,641.63-313.7,1395.73-337.02,1931.49-505.82"/>
      <path class="st13" d="M-2459.29,1721.27c514.31-506.88,943.29-499.77,1293.29-426.73,611.77,127.67,985.75,786.35,1456.11,678.36,416.35-95.59,513.47-178.37,919.4-362.93,613.21-278.81,1342.76-320.78,1907.21-528.72"/>
      <path class="st13" d="M-2361.37,1459.69c465.86-439.53,862.38-422.84,1199.98-357.61,568.94,109.93,917.52,686.84,1363.75,580.89,432.62-102.71,547.97-149.15,961.49-322.78,583.98-245.2,1289.78-304.54,1882.92-551.61"/>
      <path class="st13" d="M-2263.45,1198.11c417.41-372.19,781.4-345.75,1106.66-288.49,525.97,92.59,849.21,587.01,1271.4,483.43,448.81-110.11,582.05-120.64,1003.58-282.63,554.04-212.92,1236.8-288.3,1858.63-574.51"/>
      <path class="st13" d="M-2165.53,936.52c368.96-304.84,700.35-268.45,1013.34-219.38,482.88,75.71,780.83,486.89,1179.04,385.96,464.93-117.84,615.72-93.02,1045.66-242.48,523.5-181.98,1183.83-272.05,1834.35-597.41"/>
      <path class="st13" d="M-2067.61,674.94c320.52-237.5,619.24-190.87,920.03-150.26,439.67,59.36,712.38,386.53,1086.68,288.5,480.93-125.96,649.01-66.56,1087.75-202.33,492.51-152.41,1130.85-255.81,1810.06-620.31"/>
      <path class="st13" d="M-1969.69,413.36c272.07-170.15,538.05-112.92,826.71-81.15,396.36,43.62,643.86,285.95,994.32,191.04,496.8-134.55,681.96-41.56,1129.83-162.18,461.22-124.21,1077.88-239.57,1785.78-643.21"/>
      <path class="st13" d="M-1871.77,151.78c223.62-102.81,456.82-34.43,733.39-12.03,352.97,28.58,575.26,185.17,901.96,93.57C276.09,89.63,478.22,214.89,935.5,111.3,1365.36,13.92,1960.4-112.03,2697-554.82"/>
      <path class="st13" d="M-1773.85-109.8c175.17-35.46,375.57,44.82,640.08,57.08,309.59,14.36,506.59,84.21,809.6-3.89,527.98-153.51,747.17,2.32,1214.01-81.87,398.67-71.9,971.92-207.09,1737.21-689.01"/>
      <path class="st13" d="M-1675.93-371.38c126.72,31.89,294.59,116.33,546.76,126.2,266.14,10.42,437.82-16.89,717.24-101.35,543.17-164.18,779.79,20.07,1256.09-41.72,367.99-47.74,918.95-190.85,1712.92-711.91"/>
      <path class="st13" d="M-1578.01-632.97c78.27,99.23,213.5,207.34,453.44,195.32,223.47-11.2,368.97-118.14,624.88-198.82,557.97-175.91,812.84,34.04,1298.18-1.57,338.24-24.82,865.97-174.6,1688.64-734.81"/>
    </g>
    <line class="st14" x1="198.31" y1="1399.52" x2="609.43" y2="1399.52"/>
    <text class="st0" transform="translate(-516.67 1997.11) scale(.94 1)"><tspan x="0" y="0">ОТЕЛЬ 2.0</tspan></text>
    <text class="st5" transform="translate(-510.59 2156.53) scale(.98 1)"><tspan x="0" y="0">ВАШ ОТДЫХ - НАШ ПРИОРИТЕТ</tspan></text>
    <path class="st10" d="M34.59,406.45c2.41,52.65,45.15,94.6,96.23,96.23,53.39,1.7,100.08-41.15,102.65-96.23,1.88-95.71,82.39-171.43,174.82-168.39,88.39,2.9,161.9,76.96,163.59,168.39,14.43,183.38-366.22,281.75-497.85,468.47-20.65,29.3-37.84,60.84-37.84,96.68v519.06c-.37,10.81-.57,53.05,30.47,91.42,33.12,40.95,78.21,48.33,88.21,49.72h502.01c8.42-1,56.72-7.53,89.82-51.32,30.85-40.81,26.75-85.21,25.66-94.63V406.45c1.74-203.59-165.34-372.1-368.89-372.1S32.85,202.86,34.59,406.45Z"/>
    <text class="st2" transform="translate(171.32 1265.75) scale(.89 1)"><tspan x="0" y="0">2.0</tspan></text>
    <path class="st9" d="M5494.93,934.98c37.33,0,67.59-30.26,67.59-67.59s-30.26-67.59-67.59-67.59-67.59,30.26-67.59,67.59,30.26,67.59,67.59,67.59ZM5494.93,833.59c18.67,0,33.8,15.13,33.8,33.8s-15.13,33.8-33.8,33.8-33.8-15.13-33.8-33.8,15.13-33.8,33.8-33.8ZM5562.52,1104.47l135.19,32.92v-177.35c0-22.35-14.65-42.06-36.04-48.52l-35.49-11.83c2.59-10.54,3.92-21.35,3.94-32.21,0-74.66-60.53-135.19-135.19-135.19s-135.19,60.53-135.19,135.19c.05,6.86.61,13.71,1.69,20.48-25.94-10.34-55.35,2.3-65.69,28.24-2.38,5.97-3.6,12.34-3.59,18.77v164.8l134.9,38.55,135.48-33.85ZM5423.23,795.8c39.88-39.31,104.07-38.85,143.39,1.02,38.86,39.42,38.92,102.73.13,142.23l-71.82,70.28-71.7-70.15c-39.59-39.6-39.59-103.79,0-143.39ZM5325.94,934.98c-.04-5.66,2.8-10.96,7.54-14.06,4.96-3.26,11.26-3.69,16.63-1.15l24.23,8.75c6.48,12.84,14.97,24.57,25.13,34.74l95.46,93.38,95.6-93.5c9.4-9.39,17.37-20.1,23.66-31.8l37.46,12.52c7.25,2.07,12.25,8.7,12.25,16.24v134.33l-101.38-24.77-134.85,33.8-101.73-29.13v-139.35Z"/>
    <text class="st1" transform="translate(5821.39 918.85) scale(.94 1)"><tspan class="st17"><tspan x="0" y="0">195197 Санкт-Петербург</tspan></tspan><tspan class="st16"><tspan x="0" y="200.73">Замшина ул., 20</tspan></tspan></text>
    <path class="st6" d="M5494.93,442.46c-111.82,0-202.78-90.97-202.78-202.78s90.97-202.78,202.78-202.78,202.78,90.97,202.78,202.78-90.97,202.78-202.78,202.78ZM5494.93,70.69c-93.18,0-168.99,75.81-168.99,168.99s75.81,168.99,168.99,168.99,168.99-75.81,168.99-168.99-75.81-168.99-168.99-168.99ZM5421.18,272.98l-22,16.9c-7.54,7.54-7.54,19.77,0,27.31l8.82,10.14c9.31,9.33,21.58,13.74,33.8,13.74,62.76,0,154.5-86.91,154.5-154.5,0-12.22-4.41-24.49-13.74-33.8l-10.14-8.82c-7.54-7.54-19.77-7.54-27.31,0l-16.9,22c-7.54,7.54-7.54,19.77,0,27.31l14.38,18.06c-15.23,37.92-41.05,62.69-76.04,76.04l-18.06-14.38c-7.54-7.54-19.77-7.54-27.31,0h0Z"/>
    <text></text>
    <text class="st4" transform="translate(5821.38 282.81) scale(1.03 1)"><tspan x="0" y="0">+7 (981) 167-52-12</tspan></text>
    <g id="QR_код" class="st8">
      <rect x="5761.71" y="-2844.63" width="22.58" height="22.58"/>
      <rect x="5829.45" y="-2844.63" width="22.58" height="22.58"/>
      <rect x="5874.61" y="-2844.63" width="22.58" height="22.58"/>
      <rect x="5942.34" y="-2844.63" width="22.58" height="22.58"/>
      <rect x="5964.92" y="-2844.63" width="22.58" height="22.58"/>
      <rect x="6010.07" y="-2844.63" width="22.58" height="22.58"/>
      <rect x="6077.81" y="-2844.63" width="22.58" height="22.58"/>
      <rect x="6100.39" y="-2844.63" width="22.58" height="22.58"/>
      <rect x="6122.96" y="-2844.63" width="22.58" height="22.58"/>
      <rect x="6190.7" y="-2844.63" width="22.58" height="22.58"/>
      <rect x="6235.86" y="-2844.63" width="22.58" height="22.58"/>
      <rect x="6258.43" y="-2844.63" width="22.58" height="22.58"/>
      <rect x="6281.01" y="-2844.63" width="22.58" height="22.58"/>
      <rect x="6326.17" y="-2844.63" width="22.58" height="22.58"/>
      <rect x="6348.75" y="-2844.63" width="22.58" height="22.58"/>
      <rect x="6371.32" y="-2844.63" width="22.58" height="22.58"/>
      <rect x="6416.48" y="-2844.63" width="22.58" height="22.58"/>
      <rect x="6484.22" y="-2844.63" width="22.58" height="22.58"/>
      <rect x="5761.71" y="-2822.06" width="22.58" height="22.58"/>
      <rect x="5784.29" y="-2822.06" width="22.58" height="22.58"/>
      <rect x="5806.87" y="-2822.06" width="22.58" height="22.58"/>
      <rect x="5852.03" y="-2822.06" width="22.58" height="22.58"/>
      <rect x="5874.61" y="-2822.06" width="22.58" height="22.58"/>
      <rect x="5897.18" y="-2822.06" width="22.58" height="22.58"/>
      <rect x="5964.92" y="-2822.06" width="22.58" height="22.58"/>
      <rect x="5987.5" y="-2822.06" width="22.58" height="22.58"/>
      <rect x="6010.07" y="-2822.06" width="22.58" height="22.58"/>
      <rect x="6032.65" y="-2822.06" width="22.58" height="22.58"/>
      <rect x="6077.81" y="-2822.06" width="22.58" height="22.58"/>
      <rect x="6122.96" y="-2822.06" width="22.58" height="22.58"/>
      <rect x="6145.54" y="-2822.06" width="22.58" height="22.58"/>
      <rect x="6168.12" y="-2822.06" width="22.58" height="22.58"/>
      <rect x="6190.7" y="-2822.06" width="22.58" height="22.58"/>
      <rect x="6213.28" y="-2822.06" width="22.58" height="22.58"/>
      <rect x="6235.86" y="-2822.06" width="22.58" height="22.58"/>
      <rect x="6348.75" y="-2822.06" width="22.58" height="22.58"/>
      <rect x="6371.32" y="-2822.06" width="22.58" height="22.58"/>
      <rect x="6439.06" y="-2822.06" width="22.58" height="22.58"/>
      <rect x="6461.64" y="-2822.06" width="22.58" height="22.58"/>
      <rect x="6484.22" y="-2822.06" width="22.58" height="22.58"/>
      <rect x="5761.71" y="-2799.48" width="22.58" height="22.58"/>
      <rect x="5784.29" y="-2799.48" width="22.58" height="22.58"/>
      <rect x="5897.18" y="-2799.48" width="22.58" height="22.58"/>
      <rect x="5919.76" y="-2799.48" width="22.58" height="22.58"/>
      <rect x="5987.5" y="-2799.48" width="22.58" height="22.58"/>
      <rect x="6032.65" y="-2799.48" width="22.58" height="22.58"/>
      <rect x="6122.96" y="-2799.48" width="22.58" height="22.58"/>
      <rect x="6145.54" y="-2799.48" width="22.58" height="22.58"/>
      <rect x="6168.12" y="-2799.48" width="22.58" height="22.58"/>
      <rect x="6258.43" y="-2799.48" width="22.58" height="22.58"/>
      <rect x="6303.59" y="-2799.48" width="22.58" height="22.58"/>
      <rect x="6326.17" y="-2799.48" width="22.58" height="22.58"/>
      <rect x="6348.75" y="-2799.48" width="22.58" height="22.58"/>
      <rect x="6371.32" y="-2799.48" width="22.58" height="22.58"/>
      <rect x="6416.48" y="-2799.48" width="22.58" height="22.58"/>
      <rect x="6461.64" y="-2799.48" width="22.58" height="22.58"/>
      <rect x="6484.22" y="-2799.48" width="22.58" height="22.58"/>
      <rect x="5784.29" y="-2776.9" width="22.58" height="22.58"/>
      <rect x="5829.45" y="-2776.9" width="22.58" height="22.58"/>
      <rect x="5852.03" y="-2776.9" width="22.58" height="22.58"/>
      <rect x="5942.34" y="-2776.9" width="22.58" height="22.58"/>
      <rect x="5987.5" y="-2776.9" width="22.58" height="22.58"/>
      <rect x="6032.65" y="-2776.9" width="22.58" height="22.58"/>
      <rect x="6055.23" y="-2776.9" width="22.58" height="22.58"/>
      <rect x="6100.39" y="-2776.9" width="22.58" height="22.58"/>
      <rect x="6145.54" y="-2776.9" width="22.58" height="22.58"/>
      <rect x="6168.12" y="-2776.9" width="22.58" height="22.58"/>
      <rect x="6213.28" y="-2776.9" width="22.58" height="22.58"/>
      <rect x="6235.86" y="-2776.9" width="22.58" height="22.58"/>
      <rect x="6303.59" y="-2776.9" width="22.58" height="22.58"/>
      <rect x="6393.9" y="-2776.9" width="22.58" height="22.58"/>
      <rect x="6416.48" y="-2776.9" width="22.58" height="22.58"/>
      <rect x="6461.64" y="-2776.9" width="22.58" height="22.58"/>
      <rect x="5761.71" y="-2754.32" width="22.58" height="22.58"/>
      <rect x="5874.61" y="-2754.32" width="22.58" height="22.58"/>
      <rect x="5897.18" y="-2754.32" width="22.58" height="22.58"/>
      <rect x="5942.34" y="-2754.32" width="22.58" height="22.58"/>
      <rect x="5964.92" y="-2754.32" width="22.58" height="22.58"/>
      <rect x="6010.07" y="-2754.32" width="22.58" height="22.58"/>
      <rect x="6055.23" y="-2754.32" width="22.58" height="22.58"/>
      <rect x="6077.81" y="-2754.32" width="22.58" height="22.58"/>
      <rect x="6100.39" y="-2754.32" width="22.58" height="22.58"/>
      <rect x="6122.96" y="-2754.32" width="22.58" height="22.58"/>
      <rect x="6145.54" y="-2754.32" width="22.58" height="22.58"/>
      <rect x="6168.12" y="-2754.32" width="22.58" height="22.58"/>
      <rect x="6213.28" y="-2754.32" width="22.58" height="22.58"/>
      <rect x="6235.86" y="-2754.32" width="22.58" height="22.58"/>
      <rect x="6258.43" y="-2754.32" width="22.58" height="22.58"/>
      <rect x="6281.01" y="-2754.32" width="22.58" height="22.58"/>
      <rect x="6303.59" y="-2754.32" width="22.58" height="22.58"/>
      <rect x="6393.9" y="-2754.32" width="22.58" height="22.58"/>
      <rect x="6416.48" y="-2754.32" width="22.58" height="22.58"/>
      <rect x="5806.87" y="-2731.74" width="22.58" height="22.58"/>
      <rect x="5852.03" y="-2731.74" width="22.58" height="22.58"/>
      <rect x="5874.61" y="-2731.74" width="22.58" height="22.58"/>
      <rect x="5897.18" y="-2731.74" width="22.58" height="22.58"/>
      <rect x="5919.76" y="-2731.74" width="22.58" height="22.58"/>
      <rect x="5942.34" y="-2731.74" width="22.58" height="22.58"/>
      <rect x="6032.65" y="-2731.74" width="22.58" height="22.58"/>
      <rect x="6055.23" y="-2731.74" width="22.58" height="22.58"/>
      <rect x="6077.81" y="-2731.74" width="22.58" height="22.58"/>
      <rect x="6168.12" y="-2731.74" width="22.58" height="22.58"/>
      <rect x="6213.28" y="-2731.74" width="22.58" height="22.58"/>
      <rect x="6235.86" y="-2731.74" width="22.58" height="22.58"/>
      <rect x="6281.01" y="-2731.74" width="22.58" height="22.58"/>
      <rect x="6326.17" y="-2731.74" width="22.58" height="22.58"/>
      <rect x="6371.32" y="-2731.74" width="22.58" height="22.58"/>
      <rect x="6439.06" y="-2731.74" width="22.58" height="22.58"/>
      <rect x="5761.71" y="-2709.17" width="22.58" height="22.58"/>
      <rect x="5806.87" y="-2709.17" width="22.58" height="22.58"/>
      <rect x="5852.03" y="-2709.17" width="22.58" height="22.58"/>
      <rect x="5897.18" y="-2709.17" width="22.58" height="22.58"/>
      <rect x="5942.34" y="-2709.17" width="22.58" height="22.58"/>
      <rect x="5987.5" y="-2709.17" width="22.58" height="22.58"/>
      <rect x="6032.65" y="-2709.17" width="22.58" height="22.58"/>
      <rect x="6077.81" y="-2709.17" width="22.58" height="22.58"/>
      <rect x="6122.96" y="-2709.17" width="22.58" height="22.58"/>
      <rect x="6168.12" y="-2709.17" width="22.58" height="22.58"/>
      <rect x="6213.28" y="-2709.17" width="22.58" height="22.58"/>
      <rect x="6258.43" y="-2709.17" width="22.58" height="22.58"/>
      <rect x="6303.59" y="-2709.17" width="22.58" height="22.58"/>
      <rect x="6348.75" y="-2709.17" width="22.58" height="22.58"/>
      <rect x="6393.9" y="-2709.17" width="22.58" height="22.58"/>
      <rect x="6439.06" y="-2709.17" width="22.58" height="22.58"/>
      <rect x="6484.22" y="-2709.17" width="22.58" height="22.58"/>
      <rect x="5852.03" y="-2686.59" width="22.58" height="22.58"/>
      <rect x="5874.61" y="-2686.59" width="22.58" height="22.58"/>
      <rect x="5897.18" y="-2686.59" width="22.58" height="22.58"/>
      <rect x="6055.23" y="-2686.59" width="22.58" height="22.58"/>
      <rect x="6077.81" y="-2686.59" width="22.58" height="22.58"/>
      <rect x="6168.12" y="-2686.59" width="22.58" height="22.58"/>
      <rect x="6190.7" y="-2686.59" width="22.58" height="22.58"/>
      <rect x="6213.28" y="-2686.59" width="22.58" height="22.58"/>
      <rect x="6326.17" y="-2686.59" width="22.58" height="22.58"/>
      <rect x="6371.32" y="-2686.59" width="22.58" height="22.58"/>
      <rect x="6416.48" y="-2686.59" width="22.58" height="22.58"/>
      <rect x="6439.06" y="-2686.59" width="22.58" height="22.58"/>
      <rect x="5581.09" y="-2664.01" width="22.58" height="22.58"/>
      <rect x="5648.82" y="-2664.01" width="22.58" height="22.58"/>
      <rect x="5671.4" y="-2664.01" width="22.58" height="22.58"/>
      <rect x="5693.98" y="-2664.01" width="22.58" height="22.58"/>
      <rect x="5716.56" y="-2664.01" width="22.58" height="22.58"/>
      <rect x="5739.14" y="-2664.01" width="22.58" height="22.58"/>
      <rect x="5761.71" y="-2664.01" width="22.58" height="22.58"/>
      <rect x="5806.87" y="-2664.01" width="22.58" height="22.58"/>
      <rect x="5942.34" y="-2664.01" width="22.58" height="22.58"/>
      <rect x="5987.5" y="-2664.01" width="22.58" height="22.58"/>
      <rect x="6010.07" y="-2664.01" width="22.58" height="22.58"/>
      <rect x="6032.65" y="-2664.01" width="22.58" height="22.58"/>
      <rect x="6055.23" y="-2664.01" width="22.58" height="22.58"/>
      <rect x="6077.81" y="-2664.01" width="22.58" height="22.58"/>
      <rect x="6100.39" y="-2664.01" width="22.58" height="22.58"/>
      <rect x="6122.96" y="-2664.01" width="22.58" height="22.58"/>
      <rect x="6145.54" y="-2664.01" width="22.58" height="22.58"/>
      <rect x="6168.12" y="-2664.01" width="22.58" height="22.58"/>
      <rect x="6190.7" y="-2664.01" width="22.58" height="22.58"/>
      <rect x="6213.28" y="-2664.01" width="22.58" height="22.58"/>
      <rect x="6235.86" y="-2664.01" width="22.58" height="22.58"/>
      <rect x="6258.43" y="-2664.01" width="22.58" height="22.58"/>
      <rect x="6281.01" y="-2664.01" width="22.58" height="22.58"/>
      <rect x="6393.9" y="-2664.01" width="22.58" height="22.58"/>
      <rect x="6416.48" y="-2664.01" width="22.58" height="22.58"/>
      <rect x="6506.79" y="-2664.01" width="22.58" height="22.58"/>
      <rect x="6574.53" y="-2664.01" width="22.58" height="22.58"/>
      <rect x="6619.68" y="-2664.01" width="22.58" height="22.58"/>
      <rect x="6642.26" y="-2664.01" width="22.58" height="22.58"/>
      <rect x="6664.84" y="-2664.01" width="22.58" height="22.58"/>
      <rect x="5581.09" y="-2641.43" width="22.58" height="22.58"/>
      <rect x="5626.25" y="-2641.43" width="22.58" height="22.58"/>
      <rect x="5671.4" y="-2641.43" width="22.58" height="22.58"/>
      <rect x="5693.98" y="-2641.43" width="22.58" height="22.58"/>
      <rect x="5784.29" y="-2641.43" width="22.58" height="22.58"/>
      <rect x="5806.87" y="-2641.43" width="22.58" height="22.58"/>
      <rect x="5829.45" y="-2641.43" width="22.58" height="22.58"/>
      <rect x="5852.03" y="-2641.43" width="22.58" height="22.58"/>
      <rect x="5897.18" y="-2641.43" width="22.58" height="22.58"/>
      <rect x="5942.34" y="-2641.43" width="22.58" height="22.58"/>
      <rect x="5964.92" y="-2641.43" width="22.58" height="22.58"/>
      <rect x="5987.5" y="-2641.43" width="22.58" height="22.58"/>
      <rect x="6010.07" y="-2641.43" width="22.58" height="22.58"/>
      <rect x="6032.65" y="-2641.43" width="22.58" height="22.58"/>
      <rect x="6077.81" y="-2641.43" width="22.58" height="22.58"/>
      <rect x="6145.54" y="-2641.43" width="22.58" height="22.58"/>
      <rect x="6168.12" y="-2641.43" width="22.58" height="22.58"/>
      <rect x="6213.28" y="-2641.43" width="22.58" height="22.58"/>
      <rect x="6258.43" y="-2641.43" width="22.58" height="22.58"/>
      <rect x="6281.01" y="-2641.43" width="22.58" height="22.58"/>
      <rect x="6303.59" y="-2641.43" width="22.58" height="22.58"/>
      <rect x="6348.75" y="-2641.43" width="22.58" height="22.58"/>
      <rect x="6393.9" y="-2641.43" width="22.58" height="22.58"/>
      <rect x="6439.06" y="-2641.43" width="22.58" height="22.58"/>
      <rect x="6461.64" y="-2641.43" width="22.58" height="22.58"/>
      <rect x="6484.22" y="-2641.43" width="22.58" height="22.58"/>
      <rect x="6506.79" y="-2641.43" width="22.58" height="22.58"/>
      <rect x="6529.37" y="-2641.43" width="22.58" height="22.58"/>
      <rect x="6551.95" y="-2641.43" width="22.58" height="22.58"/>
      <rect x="6574.53" y="-2641.43" width="22.58" height="22.58"/>
      <rect x="6597.11" y="-2641.43" width="22.58" height="22.58"/>
      <rect x="6619.68" y="-2641.43" width="22.58" height="22.58"/>
      <rect x="6642.26" y="-2641.43" width="22.58" height="22.58"/>
      <rect x="5581.09" y="-2618.85" width="22.58" height="22.58"/>
      <rect x="5648.82" y="-2618.85" width="22.58" height="22.58"/>
      <rect x="5716.56" y="-2618.85" width="22.58" height="22.58"/>
      <rect x="5806.87" y="-2618.85" width="22.58" height="22.58"/>
      <rect x="5829.45" y="-2618.85" width="22.58" height="22.58"/>
      <rect x="5852.03" y="-2618.85" width="22.58" height="22.58"/>
      <rect x="5919.76" y="-2618.85" width="22.58" height="22.58"/>
      <rect x="5942.34" y="-2618.85" width="22.58" height="22.58"/>
      <rect x="5964.92" y="-2618.85" width="22.58" height="22.58"/>
      <rect x="6010.07" y="-2618.85" width="22.58" height="22.58"/>
      <rect x="6032.65" y="-2618.85" width="22.58" height="22.58"/>
      <rect x="6235.86" y="-2618.85" width="22.58" height="22.58"/>
      <rect x="6281.01" y="-2618.85" width="22.58" height="22.58"/>
      <rect x="6303.59" y="-2618.85" width="22.58" height="22.58"/>
      <rect x="6348.75" y="-2618.85" width="22.58" height="22.58"/>
      <rect x="6371.32" y="-2618.85" width="22.58" height="22.58"/>
      <rect x="6393.9" y="-2618.85" width="22.58" height="22.58"/>
      <rect x="6461.64" y="-2618.85" width="22.58" height="22.58"/>
      <rect x="6484.22" y="-2618.85" width="22.58" height="22.58"/>
      <rect x="6597.11" y="-2618.85" width="22.58" height="22.58"/>
      <rect x="6664.84" y="-2618.85" width="22.58" height="22.58"/>
      <rect x="5603.67" y="-2596.27" width="22.58" height="22.58"/>
      <rect x="5626.25" y="-2596.27" width="22.58" height="22.58"/>
      <rect x="5671.4" y="-2596.27" width="22.58" height="22.58"/>
      <rect x="5829.45" y="-2596.27" width="22.58" height="22.58"/>
      <rect x="5897.18" y="-2596.27" width="22.58" height="22.58"/>
      <rect x="5919.76" y="-2596.27" width="22.58" height="22.58"/>
      <rect x="5942.34" y="-2596.27" width="22.58" height="22.58"/>
      <rect x="5964.92" y="-2596.27" width="22.58" height="22.58"/>
      <rect x="5987.5" y="-2596.27" width="22.58" height="22.58"/>
      <rect x="6010.07" y="-2596.27" width="22.58" height="22.58"/>
      <rect x="6032.65" y="-2596.27" width="22.58" height="22.58"/>
      <rect x="6077.81" y="-2596.27" width="22.58" height="22.58"/>
      <rect x="6235.86" y="-2596.27" width="22.58" height="22.58"/>
      <rect x="6258.43" y="-2596.27" width="22.58" height="22.58"/>
      <rect x="6281.01" y="-2596.27" width="22.58" height="22.58"/>
      <rect x="6303.59" y="-2596.27" width="22.58" height="22.58"/>
      <rect x="6326.17" y="-2596.27" width="22.58" height="22.58"/>
      <rect x="6348.75" y="-2596.27" width="22.58" height="22.58"/>
      <rect x="6416.48" y="-2596.27" width="22.58" height="22.58"/>
      <rect x="6439.06" y="-2596.27" width="22.58" height="22.58"/>
      <rect x="6461.64" y="-2596.27" width="22.58" height="22.58"/>
      <rect x="6484.22" y="-2596.27" width="22.58" height="22.58"/>
      <rect x="6506.79" y="-2596.27" width="22.58" height="22.58"/>
      <rect x="6551.95" y="-2596.27" width="22.58" height="22.58"/>
      <rect x="6574.53" y="-2596.27" width="22.58" height="22.58"/>
      <rect x="6597.11" y="-2596.27" width="22.58" height="22.58"/>
      <rect x="6619.68" y="-2596.27" width="22.58" height="22.58"/>
      <rect x="6664.84" y="-2596.27" width="22.58" height="22.58"/>
      <rect x="5581.09" y="-2573.7" width="22.58" height="22.58"/>
      <rect x="5603.67" y="-2573.7" width="22.58" height="22.58"/>
      <rect x="5626.25" y="-2573.7" width="22.58" height="22.58"/>
      <rect x="5648.82" y="-2573.7" width="22.58" height="22.58"/>
      <rect x="5671.4" y="-2573.7" width="22.58" height="22.58"/>
      <rect x="5716.56" y="-2573.7" width="22.58" height="22.58"/>
      <rect x="5739.14" y="-2573.7" width="22.58" height="22.58"/>
      <rect x="5761.71" y="-2573.7" width="22.58" height="22.58"/>
      <rect x="5784.29" y="-2573.7" width="22.58" height="22.58"/>
      <rect x="5806.87" y="-2573.7" width="22.58" height="22.58"/>
      <rect x="5829.45" y="-2573.7" width="22.58" height="22.58"/>
      <rect x="5852.03" y="-2573.7" width="22.58" height="22.58"/>
      <rect x="5874.61" y="-2573.7" width="22.58" height="22.58"/>
      <rect x="5919.76" y="-2573.7" width="22.58" height="22.58"/>
      <rect x="5964.92" y="-2573.7" width="22.58" height="22.58"/>
      <rect x="5987.5" y="-2573.7" width="22.58" height="22.58"/>
      <rect x="6032.65" y="-2573.7" width="22.58" height="22.58"/>
      <rect x="6055.23" y="-2573.7" width="22.58" height="22.58"/>
      <rect x="6100.39" y="-2573.7" width="22.58" height="22.58"/>
      <rect x="6122.96" y="-2573.7" width="22.58" height="22.58"/>
      <rect x="6213.28" y="-2573.7" width="22.58" height="22.58"/>
      <rect x="6235.86" y="-2573.7" width="22.58" height="22.58"/>
      <rect x="6303.59" y="-2573.7" width="22.58" height="22.58"/>
      <rect x="6393.9" y="-2573.7" width="22.58" height="22.58"/>
      <rect x="6439.06" y="-2573.7" width="22.58" height="22.58"/>
      <rect x="6506.79" y="-2573.7" width="22.58" height="22.58"/>
      <rect x="6574.53" y="-2573.7" width="22.58" height="22.58"/>
      <rect x="6597.11" y="-2573.7" width="22.58" height="22.58"/>
      <rect x="6664.84" y="-2573.7" width="22.58" height="22.58"/>
      <rect x="5603.67" y="-2551.12" width="22.58" height="22.58"/>
      <rect x="5626.25" y="-2551.12" width="22.58" height="22.58"/>
      <rect x="5648.82" y="-2551.12" width="22.58" height="22.58"/>
      <rect x="5671.4" y="-2551.12" width="22.58" height="22.58"/>
      <rect x="5739.14" y="-2551.12" width="22.58" height="22.58"/>
      <rect x="5806.87" y="-2551.12" width="22.58" height="22.58"/>
      <rect x="5852.03" y="-2551.12" width="22.58" height="22.58"/>
      <rect x="5987.5" y="-2551.12" width="22.58" height="22.58"/>
      <rect x="6010.07" y="-2551.12" width="22.58" height="22.58"/>
      <rect x="6032.65" y="-2551.12" width="22.58" height="22.58"/>
      <rect x="6100.39" y="-2551.12" width="22.58" height="22.58"/>
      <rect x="6145.54" y="-2551.12" width="22.58" height="22.58"/>
      <rect x="6168.12" y="-2551.12" width="22.58" height="22.58"/>
      <rect x="6190.7" y="-2551.12" width="22.58" height="22.58"/>
      <rect x="6235.86" y="-2551.12" width="22.58" height="22.58"/>
      <rect x="6258.43" y="-2551.12" width="22.58" height="22.58"/>
      <rect x="6281.01" y="-2551.12" width="22.58" height="22.58"/>
      <rect x="6303.59" y="-2551.12" width="22.58" height="22.58"/>
      <rect x="6439.06" y="-2551.12" width="22.58" height="22.58"/>
      <rect x="6529.37" y="-2551.12" width="22.58" height="22.58"/>
      <rect x="6551.95" y="-2551.12" width="22.58" height="22.58"/>
      <rect x="6597.11" y="-2551.12" width="22.58" height="22.58"/>
      <rect x="6619.68" y="-2551.12" width="22.58" height="22.58"/>
      <rect x="6642.26" y="-2551.12" width="22.58" height="22.58"/>
      <rect x="5581.09" y="-2528.54" width="22.58" height="22.58"/>
      <rect x="5603.67" y="-2528.54" width="22.58" height="22.58"/>
      <rect x="5671.4" y="-2528.54" width="22.58" height="22.58"/>
      <rect x="5693.98" y="-2528.54" width="22.58" height="22.58"/>
      <rect x="5716.56" y="-2528.54" width="22.58" height="22.58"/>
      <rect x="5784.29" y="-2528.54" width="22.58" height="22.58"/>
      <rect x="5806.87" y="-2528.54" width="22.58" height="22.58"/>
      <rect x="5852.03" y="-2528.54" width="22.58" height="22.58"/>
      <rect x="5919.76" y="-2528.54" width="22.58" height="22.58"/>
      <rect x="5964.92" y="-2528.54" width="22.58" height="22.58"/>
      <rect x="6077.81" y="-2528.54" width="22.58" height="22.58"/>
      <rect x="6122.96" y="-2528.54" width="22.58" height="22.58"/>
      <rect x="6168.12" y="-2528.54" width="22.58" height="22.58"/>
      <rect x="6190.7" y="-2528.54" width="22.58" height="22.58"/>
      <rect x="6213.28" y="-2528.54" width="22.58" height="22.58"/>
      <rect x="6258.43" y="-2528.54" width="22.58" height="22.58"/>
      <rect x="6281.01" y="-2528.54" width="22.58" height="22.58"/>
      <rect x="6371.32" y="-2528.54" width="22.58" height="22.58"/>
      <rect x="6439.06" y="-2528.54" width="22.58" height="22.58"/>
      <rect x="6461.64" y="-2528.54" width="22.58" height="22.58"/>
      <rect x="6484.22" y="-2528.54" width="22.58" height="22.58"/>
      <rect x="6551.95" y="-2528.54" width="22.58" height="22.58"/>
      <rect x="6619.68" y="-2528.54" width="22.58" height="22.58"/>
      <rect x="6642.26" y="-2528.54" width="22.58" height="22.58"/>
      <rect x="6664.84" y="-2528.54" width="22.58" height="22.58"/>
      <rect x="5581.09" y="-2505.96" width="22.58" height="22.58"/>
      <rect x="5603.67" y="-2505.96" width="22.58" height="22.58"/>
      <rect x="5626.25" y="-2505.96" width="22.58" height="22.58"/>
      <rect x="5648.82" y="-2505.96" width="22.58" height="22.58"/>
      <rect x="5671.4" y="-2505.96" width="22.58" height="22.58"/>
      <rect x="5829.45" y="-2505.96" width="22.58" height="22.58"/>
      <rect x="5852.03" y="-2505.96" width="22.58" height="22.58"/>
      <rect x="5942.34" y="-2505.96" width="22.58" height="22.58"/>
      <rect x="6032.65" y="-2505.96" width="22.58" height="22.58"/>
      <rect x="6077.81" y="-2505.96" width="22.58" height="22.58"/>
      <rect x="6190.7" y="-2505.96" width="22.58" height="22.58"/>
      <rect x="6213.28" y="-2505.96" width="22.58" height="22.58"/>
      <rect x="6258.43" y="-2505.96" width="22.58" height="22.58"/>
      <rect x="6326.17" y="-2505.96" width="22.58" height="22.58"/>
      <rect x="6348.75" y="-2505.96" width="22.58" height="22.58"/>
      <rect x="6371.32" y="-2505.96" width="22.58" height="22.58"/>
      <rect x="6439.06" y="-2505.96" width="22.58" height="22.58"/>
      <rect x="6461.64" y="-2505.96" width="22.58" height="22.58"/>
      <rect x="6484.22" y="-2505.96" width="22.58" height="22.58"/>
      <rect x="6506.79" y="-2505.96" width="22.58" height="22.58"/>
      <rect x="6597.11" y="-2505.96" width="22.58" height="22.58"/>
      <rect x="6619.68" y="-2505.96" width="22.58" height="22.58"/>
      <rect x="6664.84" y="-2505.96" width="22.58" height="22.58"/>
      <rect x="5603.67" y="-2483.38" width="22.58" height="22.58"/>
      <rect x="5626.25" y="-2483.38" width="22.58" height="22.58"/>
      <rect x="5671.4" y="-2483.38" width="22.58" height="22.58"/>
      <rect x="5716.56" y="-2483.38" width="22.58" height="22.58"/>
      <rect x="5739.14" y="-2483.38" width="22.58" height="22.58"/>
      <rect x="5897.18" y="-2483.38" width="22.58" height="22.58"/>
      <rect x="5964.92" y="-2483.38" width="22.58" height="22.58"/>
      <rect x="5987.5" y="-2483.38" width="22.58" height="22.58"/>
      <rect x="6010.07" y="-2483.38" width="22.58" height="22.58"/>
      <rect x="6122.96" y="-2483.38" width="22.58" height="22.58"/>
      <rect x="6145.54" y="-2483.38" width="22.58" height="22.58"/>
      <rect x="6168.12" y="-2483.38" width="22.58" height="22.58"/>
      <rect x="6190.7" y="-2483.38" width="22.58" height="22.58"/>
      <rect x="6235.86" y="-2483.38" width="22.58" height="22.58"/>
      <rect x="6303.59" y="-2483.38" width="22.58" height="22.58"/>
      <rect x="6326.17" y="-2483.38" width="22.58" height="22.58"/>
      <rect x="6348.75" y="-2483.38" width="22.58" height="22.58"/>
      <rect x="6393.9" y="-2483.38" width="22.58" height="22.58"/>
      <rect x="6484.22" y="-2483.38" width="22.58" height="22.58"/>
      <rect x="6506.79" y="-2483.38" width="22.58" height="22.58"/>
      <rect x="6529.37" y="-2483.38" width="22.58" height="22.58"/>
      <rect x="6551.95" y="-2483.38" width="22.58" height="22.58"/>
      <rect x="6574.53" y="-2483.38" width="22.58" height="22.58"/>
      <rect x="6619.68" y="-2483.38" width="22.58" height="22.58"/>
      <rect x="6642.26" y="-2483.38" width="22.58" height="22.58"/>
      <rect x="5648.82" y="-2460.81" width="22.58" height="22.58"/>
      <rect x="5671.4" y="-2460.81" width="22.58" height="22.58"/>
      <rect x="5739.14" y="-2460.81" width="22.58" height="22.58"/>
      <rect x="5761.71" y="-2460.81" width="22.58" height="22.58"/>
      <rect x="5806.87" y="-2460.81" width="22.58" height="22.58"/>
      <rect x="5829.45" y="-2460.81" width="22.58" height="22.58"/>
      <rect x="5852.03" y="-2460.81" width="22.58" height="22.58"/>
      <rect x="5919.76" y="-2460.81" width="22.58" height="22.58"/>
      <rect x="5942.34" y="-2460.81" width="22.58" height="22.58"/>
      <rect x="6055.23" y="-2460.81" width="22.58" height="22.58"/>
      <rect x="6077.81" y="-2460.81" width="22.58" height="22.58"/>
      <rect x="6122.96" y="-2460.81" width="22.58" height="22.58"/>
      <rect x="6190.7" y="-2460.81" width="22.58" height="22.58"/>
      <rect x="6213.28" y="-2460.81" width="22.58" height="22.58"/>
      <rect x="6235.86" y="-2460.81" width="22.58" height="22.58"/>
      <rect x="6258.43" y="-2460.81" width="22.58" height="22.58"/>
      <rect x="6326.17" y="-2460.81" width="22.58" height="22.58"/>
      <rect x="6348.75" y="-2460.81" width="22.58" height="22.58"/>
      <rect x="6393.9" y="-2460.81" width="22.58" height="22.58"/>
      <rect x="6416.48" y="-2460.81" width="22.58" height="22.58"/>
      <rect x="6484.22" y="-2460.81" width="22.58" height="22.58"/>
      <rect x="6529.37" y="-2460.81" width="22.58" height="22.58"/>
      <rect x="6551.95" y="-2460.81" width="22.58" height="22.58"/>
      <rect x="6574.53" y="-2460.81" width="22.58" height="22.58"/>
      <rect x="6597.11" y="-2460.81" width="22.58" height="22.58"/>
      <rect x="6619.68" y="-2460.81" width="22.58" height="22.58"/>
      <rect x="6642.26" y="-2460.81" width="22.58" height="22.58"/>
      <rect x="5626.25" y="-2438.23" width="22.58" height="22.58"/>
      <rect x="5716.56" y="-2438.23" width="22.58" height="22.58"/>
      <rect x="5784.29" y="-2438.23" width="22.58" height="22.58"/>
      <rect x="5942.34" y="-2438.23" width="22.58" height="22.58"/>
      <rect x="6010.07" y="-2438.23" width="22.58" height="22.58"/>
      <rect x="6032.65" y="-2438.23" width="22.58" height="22.58"/>
      <rect x="6077.81" y="-2438.23" width="22.58" height="22.58"/>
      <rect x="6190.7" y="-2438.23" width="22.58" height="22.58"/>
      <rect x="6213.28" y="-2438.23" width="22.58" height="22.58"/>
      <rect x="6235.86" y="-2438.23" width="22.58" height="22.58"/>
      <rect x="6258.43" y="-2438.23" width="22.58" height="22.58"/>
      <rect x="6281.01" y="-2438.23" width="22.58" height="22.58"/>
      <rect x="6506.79" y="-2438.23" width="22.58" height="22.58"/>
      <rect x="6597.11" y="-2438.23" width="22.58" height="22.58"/>
      <rect x="6619.68" y="-2438.23" width="22.58" height="22.58"/>
      <rect x="6664.84" y="-2438.23" width="22.58" height="22.58"/>
      <rect x="5581.09" y="-2415.65" width="22.58" height="22.58"/>
      <rect x="5626.25" y="-2415.65" width="22.58" height="22.58"/>
      <rect x="5648.82" y="-2415.65" width="22.58" height="22.58"/>
      <rect x="5739.14" y="-2415.65" width="22.58" height="22.58"/>
      <rect x="5761.71" y="-2415.65" width="22.58" height="22.58"/>
      <rect x="5784.29" y="-2415.65" width="22.58" height="22.58"/>
      <rect x="5829.45" y="-2415.65" width="22.58" height="22.58"/>
      <rect x="5852.03" y="-2415.65" width="22.58" height="22.58"/>
      <rect x="5874.61" y="-2415.65" width="22.58" height="22.58"/>
      <rect x="5897.18" y="-2415.65" width="22.58" height="22.58"/>
      <rect x="5919.76" y="-2415.65" width="22.58" height="22.58"/>
      <rect x="6032.65" y="-2415.65" width="22.58" height="22.58"/>
      <rect x="6055.23" y="-2415.65" width="22.58" height="22.58"/>
      <rect x="6100.39" y="-2415.65" width="22.58" height="22.58"/>
      <rect x="6145.54" y="-2415.65" width="22.58" height="22.58"/>
      <rect x="6168.12" y="-2415.65" width="22.58" height="22.58"/>
      <rect x="6190.7" y="-2415.65" width="22.58" height="22.58"/>
      <rect x="6213.28" y="-2415.65" width="22.58" height="22.58"/>
      <rect x="6235.86" y="-2415.65" width="22.58" height="22.58"/>
      <rect x="6281.01" y="-2415.65" width="22.58" height="22.58"/>
      <rect x="6326.17" y="-2415.65" width="22.58" height="22.58"/>
      <rect x="6371.32" y="-2415.65" width="22.58" height="22.58"/>
      <rect x="6506.79" y="-2415.65" width="22.58" height="22.58"/>
      <rect x="6529.37" y="-2415.65" width="22.58" height="22.58"/>
      <rect x="6597.11" y="-2415.65" width="22.58" height="22.58"/>
      <rect x="6642.26" y="-2415.65" width="22.58" height="22.58"/>
      <rect x="5581.09" y="-2393.07" width="22.58" height="22.58"/>
      <rect x="5603.67" y="-2393.07" width="22.58" height="22.58"/>
      <rect x="5626.25" y="-2393.07" width="22.58" height="22.58"/>
      <rect x="5648.82" y="-2393.07" width="22.58" height="22.58"/>
      <rect x="5716.56" y="-2393.07" width="22.58" height="22.58"/>
      <rect x="5739.14" y="-2393.07" width="22.58" height="22.58"/>
      <rect x="5784.29" y="-2393.07" width="22.58" height="22.58"/>
      <rect x="5829.45" y="-2393.07" width="22.58" height="22.58"/>
      <rect x="5852.03" y="-2393.07" width="22.58" height="22.58"/>
      <rect x="5964.92" y="-2393.07" width="22.58" height="22.58"/>
      <rect x="6010.07" y="-2393.07" width="22.58" height="22.58"/>
      <rect x="6032.65" y="-2393.07" width="22.58" height="22.58"/>
      <rect x="6100.39" y="-2393.07" width="22.58" height="22.58"/>
      <rect x="6122.96" y="-2393.07" width="22.58" height="22.58"/>
      <rect x="6190.7" y="-2393.07" width="22.58" height="22.58"/>
      <rect x="6213.28" y="-2393.07" width="22.58" height="22.58"/>
      <rect x="6235.86" y="-2393.07" width="22.58" height="22.58"/>
      <rect x="6281.01" y="-2393.07" width="22.58" height="22.58"/>
      <rect x="6348.75" y="-2393.07" width="22.58" height="22.58"/>
      <rect x="6393.9" y="-2393.07" width="22.58" height="22.58"/>
      <rect x="6416.48" y="-2393.07" width="22.58" height="22.58"/>
      <rect x="6439.06" y="-2393.07" width="22.58" height="22.58"/>
      <rect x="6461.64" y="-2393.07" width="22.58" height="22.58"/>
      <rect x="6529.37" y="-2393.07" width="22.58" height="22.58"/>
      <rect x="6551.95" y="-2393.07" width="22.58" height="22.58"/>
      <rect x="6642.26" y="-2393.07" width="22.58" height="22.58"/>
      <rect x="5581.09" y="-2370.49" width="22.58" height="22.58"/>
      <rect x="5603.67" y="-2370.49" width="22.58" height="22.58"/>
      <rect x="5626.25" y="-2370.49" width="22.58" height="22.58"/>
      <rect x="5671.4" y="-2370.49" width="22.58" height="22.58"/>
      <rect x="5693.98" y="-2370.49" width="22.58" height="22.58"/>
      <rect x="5739.14" y="-2370.49" width="22.58" height="22.58"/>
      <rect x="5761.71" y="-2370.49" width="22.58" height="22.58"/>
      <rect x="5784.29" y="-2370.49" width="22.58" height="22.58"/>
      <rect x="5806.87" y="-2370.49" width="22.58" height="22.58"/>
      <rect x="5829.45" y="-2370.49" width="22.58" height="22.58"/>
      <rect x="5852.03" y="-2370.49" width="22.58" height="22.58"/>
      <rect x="5874.61" y="-2370.49" width="22.58" height="22.58"/>
      <rect x="6010.07" y="-2370.49" width="22.58" height="22.58"/>
      <rect x="6032.65" y="-2370.49" width="22.58" height="22.58"/>
      <rect x="6055.23" y="-2370.49" width="22.58" height="22.58"/>
      <rect x="6077.81" y="-2370.49" width="22.58" height="22.58"/>
      <rect x="6100.39" y="-2370.49" width="22.58" height="22.58"/>
      <rect x="6122.96" y="-2370.49" width="22.58" height="22.58"/>
      <rect x="6168.12" y="-2370.49" width="22.58" height="22.58"/>
      <rect x="6258.43" y="-2370.49" width="22.58" height="22.58"/>
      <rect x="6348.75" y="-2370.49" width="22.58" height="22.58"/>
      <rect x="6416.48" y="-2370.49" width="22.58" height="22.58"/>
      <rect x="6439.06" y="-2370.49" width="22.58" height="22.58"/>
      <rect x="6461.64" y="-2370.49" width="22.58" height="22.58"/>
      <rect x="6484.22" y="-2370.49" width="22.58" height="22.58"/>
      <rect x="6506.79" y="-2370.49" width="22.58" height="22.58"/>
      <rect x="6529.37" y="-2370.49" width="22.58" height="22.58"/>
      <rect x="6551.95" y="-2370.49" width="22.58" height="22.58"/>
      <rect x="6619.68" y="-2370.49" width="22.58" height="22.58"/>
      <rect x="6642.26" y="-2370.49" width="22.58" height="22.58"/>
      <rect x="5603.67" y="-2347.92" width="22.58" height="22.58"/>
      <rect x="5626.25" y="-2347.92" width="22.58" height="22.58"/>
      <rect x="5648.82" y="-2347.92" width="22.58" height="22.58"/>
      <rect x="5671.4" y="-2347.92" width="22.58" height="22.58"/>
      <rect x="5693.98" y="-2347.92" width="22.58" height="22.58"/>
      <rect x="5716.56" y="-2347.92" width="22.58" height="22.58"/>
      <rect x="5739.14" y="-2347.92" width="22.58" height="22.58"/>
      <rect x="5761.71" y="-2347.92" width="22.58" height="22.58"/>
      <rect x="5829.45" y="-2347.92" width="22.58" height="22.58"/>
      <rect x="5874.61" y="-2347.92" width="22.58" height="22.58"/>
      <rect x="5897.18" y="-2347.92" width="22.58" height="22.58"/>
      <rect x="5919.76" y="-2347.92" width="22.58" height="22.58"/>
      <rect x="5942.34" y="-2347.92" width="22.58" height="22.58"/>
      <rect x="5987.5" y="-2347.92" width="22.58" height="22.58"/>
      <rect x="6055.23" y="-2347.92" width="22.58" height="22.58"/>
      <rect x="6077.81" y="-2347.92" width="22.58" height="22.58"/>
      <rect x="6100.39" y="-2347.92" width="22.58" height="22.58"/>
      <rect x="6122.96" y="-2347.92" width="22.58" height="22.58"/>
      <rect x="6145.54" y="-2347.92" width="22.58" height="22.58"/>
      <rect x="6168.12" y="-2347.92" width="22.58" height="22.58"/>
      <rect x="6213.28" y="-2347.92" width="22.58" height="22.58"/>
      <rect x="6281.01" y="-2347.92" width="22.58" height="22.58"/>
      <rect x="6303.59" y="-2347.92" width="22.58" height="22.58"/>
      <rect x="6326.17" y="-2347.92" width="22.58" height="22.58"/>
      <rect x="6348.75" y="-2347.92" width="22.58" height="22.58"/>
      <rect x="6484.22" y="-2347.92" width="22.58" height="22.58"/>
      <rect x="6506.79" y="-2347.92" width="22.58" height="22.58"/>
      <rect x="6529.37" y="-2347.92" width="22.58" height="22.58"/>
      <rect x="6551.95" y="-2347.92" width="22.58" height="22.58"/>
      <rect x="6574.53" y="-2347.92" width="22.58" height="22.58"/>
      <rect x="6597.11" y="-2347.92" width="22.58" height="22.58"/>
      <rect x="6619.68" y="-2347.92" width="22.58" height="22.58"/>
      <rect x="6664.84" y="-2347.92" width="22.58" height="22.58"/>
      <rect x="5581.09" y="-2325.34" width="22.58" height="22.58"/>
      <rect x="5648.82" y="-2325.34" width="22.58" height="22.58"/>
      <rect x="5671.4" y="-2325.34" width="22.58" height="22.58"/>
      <rect x="5761.71" y="-2325.34" width="22.58" height="22.58"/>
      <rect x="5784.29" y="-2325.34" width="22.58" height="22.58"/>
      <rect x="5852.03" y="-2325.34" width="22.58" height="22.58"/>
      <rect x="5897.18" y="-2325.34" width="22.58" height="22.58"/>
      <rect x="5964.92" y="-2325.34" width="22.58" height="22.58"/>
      <rect x="5987.5" y="-2325.34" width="22.58" height="22.58"/>
      <rect x="6077.81" y="-2325.34" width="22.58" height="22.58"/>
      <rect x="6168.12" y="-2325.34" width="22.58" height="22.58"/>
      <rect x="6190.7" y="-2325.34" width="22.58" height="22.58"/>
      <rect x="6281.01" y="-2325.34" width="22.58" height="22.58"/>
      <rect x="6303.59" y="-2325.34" width="22.58" height="22.58"/>
      <rect x="6326.17" y="-2325.34" width="22.58" height="22.58"/>
      <rect x="6348.75" y="-2325.34" width="22.58" height="22.58"/>
      <rect x="6416.48" y="-2325.34" width="22.58" height="22.58"/>
      <rect x="6439.06" y="-2325.34" width="22.58" height="22.58"/>
      <rect x="6484.22" y="-2325.34" width="22.58" height="22.58"/>
      <rect x="6574.53" y="-2325.34" width="22.58" height="22.58"/>
      <rect x="6597.11" y="-2325.34" width="22.58" height="22.58"/>
      <rect x="6619.68" y="-2325.34" width="22.58" height="22.58"/>
      <rect x="6664.84" y="-2325.34" width="22.58" height="22.58"/>
      <rect x="5581.09" y="-2302.76" width="22.58" height="22.58"/>
      <rect x="5648.82" y="-2302.76" width="22.58" height="22.58"/>
      <rect x="5671.4" y="-2302.76" width="22.58" height="22.58"/>
      <rect x="5716.56" y="-2302.76" width="22.58" height="22.58"/>
      <rect x="5761.71" y="-2302.76" width="22.58" height="22.58"/>
      <rect x="5784.29" y="-2302.76" width="22.58" height="22.58"/>
      <rect x="5897.18" y="-2302.76" width="22.58" height="22.58"/>
      <rect x="6055.23" y="-2302.76" width="22.58" height="22.58"/>
      <rect x="6077.81" y="-2302.76" width="22.58" height="22.58"/>
      <rect x="6122.96" y="-2302.76" width="22.58" height="22.58"/>
      <rect x="6168.12" y="-2302.76" width="22.58" height="22.58"/>
      <rect x="6190.7" y="-2302.76" width="22.58" height="22.58"/>
      <rect x="6213.28" y="-2302.76" width="22.58" height="22.58"/>
      <rect x="6235.86" y="-2302.76" width="22.58" height="22.58"/>
      <rect x="6281.01" y="-2302.76" width="22.58" height="22.58"/>
      <rect x="6303.59" y="-2302.76" width="22.58" height="22.58"/>
      <rect x="6348.75" y="-2302.76" width="22.58" height="22.58"/>
      <rect x="6371.32" y="-2302.76" width="22.58" height="22.58"/>
      <rect x="6393.9" y="-2302.76" width="22.58" height="22.58"/>
      <rect x="6416.48" y="-2302.76" width="22.58" height="22.58"/>
      <rect x="6461.64" y="-2302.76" width="22.58" height="22.58"/>
      <rect x="6484.22" y="-2302.76" width="22.58" height="22.58"/>
      <rect x="6529.37" y="-2302.76" width="22.58" height="22.58"/>
      <rect x="6574.53" y="-2302.76" width="22.58" height="22.58"/>
      <rect x="6597.11" y="-2302.76" width="22.58" height="22.58"/>
      <rect x="6664.84" y="-2302.76" width="22.58" height="22.58"/>
      <rect x="5671.4" y="-2280.18" width="22.58" height="22.58"/>
      <rect x="5761.71" y="-2280.18" width="22.58" height="22.58"/>
      <rect x="5784.29" y="-2280.18" width="22.58" height="22.58"/>
      <rect x="5806.87" y="-2280.18" width="22.58" height="22.58"/>
      <rect x="5829.45" y="-2280.18" width="22.58" height="22.58"/>
      <rect x="5897.18" y="-2280.18" width="22.58" height="22.58"/>
      <rect x="5964.92" y="-2280.18" width="22.58" height="22.58"/>
      <rect x="5987.5" y="-2280.18" width="22.58" height="22.58"/>
      <rect x="6032.65" y="-2280.18" width="22.58" height="22.58"/>
      <rect x="6055.23" y="-2280.18" width="22.58" height="22.58"/>
      <rect x="6077.81" y="-2280.18" width="22.58" height="22.58"/>
      <rect x="6168.12" y="-2280.18" width="22.58" height="22.58"/>
      <rect x="6213.28" y="-2280.18" width="22.58" height="22.58"/>
      <rect x="6258.43" y="-2280.18" width="22.58" height="22.58"/>
      <rect x="6393.9" y="-2280.18" width="22.58" height="22.58"/>
      <rect x="6416.48" y="-2280.18" width="22.58" height="22.58"/>
      <rect x="6439.06" y="-2280.18" width="22.58" height="22.58"/>
      <rect x="6461.64" y="-2280.18" width="22.58" height="22.58"/>
      <rect x="6484.22" y="-2280.18" width="22.58" height="22.58"/>
      <rect x="6574.53" y="-2280.18" width="22.58" height="22.58"/>
      <rect x="6597.11" y="-2280.18" width="22.58" height="22.58"/>
      <rect x="6642.26" y="-2280.18" width="22.58" height="22.58"/>
      <rect x="5581.09" y="-2257.6" width="22.58" height="22.58"/>
      <rect x="5626.25" y="-2257.6" width="22.58" height="22.58"/>
      <rect x="5648.82" y="-2257.6" width="22.58" height="22.58"/>
      <rect x="5671.4" y="-2257.6" width="22.58" height="22.58"/>
      <rect x="5693.98" y="-2257.6" width="22.58" height="22.58"/>
      <rect x="5716.56" y="-2257.6" width="22.58" height="22.58"/>
      <rect x="5739.14" y="-2257.6" width="22.58" height="22.58"/>
      <rect x="5761.71" y="-2257.6" width="22.58" height="22.58"/>
      <rect x="5784.29" y="-2257.6" width="22.58" height="22.58"/>
      <rect x="5806.87" y="-2257.6" width="22.58" height="22.58"/>
      <rect x="5829.45" y="-2257.6" width="22.58" height="22.58"/>
      <rect x="5874.61" y="-2257.6" width="22.58" height="22.58"/>
      <rect x="5919.76" y="-2257.6" width="22.58" height="22.58"/>
      <rect x="5942.34" y="-2257.6" width="22.58" height="22.58"/>
      <rect x="5964.92" y="-2257.6" width="22.58" height="22.58"/>
      <rect x="5987.5" y="-2257.6" width="22.58" height="22.58"/>
      <rect x="6010.07" y="-2257.6" width="22.58" height="22.58"/>
      <rect x="6032.65" y="-2257.6" width="22.58" height="22.58"/>
      <rect x="6077.81" y="-2257.6" width="22.58" height="22.58"/>
      <rect x="6100.39" y="-2257.6" width="22.58" height="22.58"/>
      <rect x="6122.96" y="-2257.6" width="22.58" height="22.58"/>
      <rect x="6145.54" y="-2257.6" width="22.58" height="22.58"/>
      <rect x="6168.12" y="-2257.6" width="22.58" height="22.58"/>
      <rect x="6190.7" y="-2257.6" width="22.58" height="22.58"/>
      <rect x="6213.28" y="-2257.6" width="22.58" height="22.58"/>
      <rect x="6235.86" y="-2257.6" width="22.58" height="22.58"/>
      <rect x="6281.01" y="-2257.6" width="22.58" height="22.58"/>
      <rect x="6326.17" y="-2257.6" width="22.58" height="22.58"/>
      <rect x="6393.9" y="-2257.6" width="22.58" height="22.58"/>
      <rect x="6439.06" y="-2257.6" width="22.58" height="22.58"/>
      <rect x="6461.64" y="-2257.6" width="22.58" height="22.58"/>
      <rect x="6484.22" y="-2257.6" width="22.58" height="22.58"/>
      <rect x="6506.79" y="-2257.6" width="22.58" height="22.58"/>
      <rect x="6529.37" y="-2257.6" width="22.58" height="22.58"/>
      <rect x="6551.95" y="-2257.6" width="22.58" height="22.58"/>
      <rect x="6574.53" y="-2257.6" width="22.58" height="22.58"/>
      <rect x="6619.68" y="-2257.6" width="22.58" height="22.58"/>
      <rect x="6642.26" y="-2257.6" width="22.58" height="22.58"/>
      <rect x="6664.84" y="-2257.6" width="22.58" height="22.58"/>
      <rect x="5671.4" y="-2235.02" width="22.58" height="22.58"/>
      <rect x="5829.45" y="-2235.02" width="22.58" height="22.58"/>
      <rect x="5874.61" y="-2235.02" width="22.58" height="22.58"/>
      <rect x="5919.76" y="-2235.02" width="22.58" height="22.58"/>
      <rect x="6032.65" y="-2235.02" width="22.58" height="22.58"/>
      <rect x="6077.81" y="-2235.02" width="22.58" height="22.58"/>
      <rect x="6100.39" y="-2235.02" width="22.58" height="22.58"/>
      <rect x="6145.54" y="-2235.02" width="22.58" height="22.58"/>
      <rect x="6168.12" y="-2235.02" width="22.58" height="22.58"/>
      <rect x="6258.43" y="-2235.02" width="22.58" height="22.58"/>
      <rect x="6281.01" y="-2235.02" width="22.58" height="22.58"/>
      <rect x="6348.75" y="-2235.02" width="22.58" height="22.58"/>
      <rect x="6416.48" y="-2235.02" width="22.58" height="22.58"/>
      <rect x="6461.64" y="-2235.02" width="22.58" height="22.58"/>
      <rect x="6484.22" y="-2235.02" width="22.58" height="22.58"/>
      <rect x="6574.53" y="-2235.02" width="22.58" height="22.58"/>
      <rect x="6597.11" y="-2235.02" width="22.58" height="22.58"/>
      <rect x="6619.68" y="-2235.02" width="22.58" height="22.58"/>
      <rect x="5581.09" y="-2212.45" width="22.58" height="22.58"/>
      <rect x="5603.67" y="-2212.45" width="22.58" height="22.58"/>
      <rect x="5626.25" y="-2212.45" width="22.58" height="22.58"/>
      <rect x="5671.4" y="-2212.45" width="22.58" height="22.58"/>
      <rect x="5693.98" y="-2212.45" width="22.58" height="22.58"/>
      <rect x="5716.56" y="-2212.45" width="22.58" height="22.58"/>
      <rect x="5806.87" y="-2212.45" width="22.58" height="22.58"/>
      <rect x="5852.03" y="-2212.45" width="22.58" height="22.58"/>
      <rect x="5897.18" y="-2212.45" width="22.58" height="22.58"/>
      <rect x="5919.76" y="-2212.45" width="22.58" height="22.58"/>
      <rect x="5942.34" y="-2212.45" width="22.58" height="22.58"/>
      <rect x="5964.92" y="-2212.45" width="22.58" height="22.58"/>
      <rect x="6032.65" y="-2212.45" width="22.58" height="22.58"/>
      <rect x="6077.81" y="-2212.45" width="22.58" height="22.58"/>
      <rect x="6122.96" y="-2212.45" width="22.58" height="22.58"/>
      <rect x="6145.54" y="-2212.45" width="22.58" height="22.58"/>
      <rect x="6281.01" y="-2212.45" width="22.58" height="22.58"/>
      <rect x="6303.59" y="-2212.45" width="22.58" height="22.58"/>
      <rect x="6326.17" y="-2212.45" width="22.58" height="22.58"/>
      <rect x="6348.75" y="-2212.45" width="22.58" height="22.58"/>
      <rect x="6371.32" y="-2212.45" width="22.58" height="22.58"/>
      <rect x="6393.9" y="-2212.45" width="22.58" height="22.58"/>
      <rect x="6461.64" y="-2212.45" width="22.58" height="22.58"/>
      <rect x="6506.79" y="-2212.45" width="22.58" height="22.58"/>
      <rect x="6529.37" y="-2212.45" width="22.58" height="22.58"/>
      <rect x="6619.68" y="-2212.45" width="22.58" height="22.58"/>
      <rect x="6642.26" y="-2212.45" width="22.58" height="22.58"/>
      <rect x="6664.84" y="-2212.45" width="22.58" height="22.58"/>
      <rect x="5603.67" y="-2189.87" width="22.58" height="22.58"/>
      <rect x="5693.98" y="-2189.87" width="22.58" height="22.58"/>
      <rect x="5739.14" y="-2189.87" width="22.58" height="22.58"/>
      <rect x="5761.71" y="-2189.87" width="22.58" height="22.58"/>
      <rect x="5784.29" y="-2189.87" width="22.58" height="22.58"/>
      <rect x="5806.87" y="-2189.87" width="22.58" height="22.58"/>
      <rect x="5874.61" y="-2189.87" width="22.58" height="22.58"/>
      <rect x="6010.07" y="-2189.87" width="22.58" height="22.58"/>
      <rect x="6032.65" y="-2189.87" width="22.58" height="22.58"/>
      <rect x="6077.81" y="-2189.87" width="22.58" height="22.58"/>
      <rect x="6100.39" y="-2189.87" width="22.58" height="22.58"/>
      <rect x="6122.96" y="-2189.87" width="22.58" height="22.58"/>
      <rect x="6168.12" y="-2189.87" width="22.58" height="22.58"/>
      <rect x="6190.7" y="-2189.87" width="22.58" height="22.58"/>
      <rect x="6235.86" y="-2189.87" width="22.58" height="22.58"/>
      <rect x="6258.43" y="-2189.87" width="22.58" height="22.58"/>
      <rect x="6281.01" y="-2189.87" width="22.58" height="22.58"/>
      <rect x="6348.75" y="-2189.87" width="22.58" height="22.58"/>
      <rect x="6371.32" y="-2189.87" width="22.58" height="22.58"/>
      <rect x="6393.9" y="-2189.87" width="22.58" height="22.58"/>
      <rect x="6461.64" y="-2189.87" width="22.58" height="22.58"/>
      <rect x="6551.95" y="-2189.87" width="22.58" height="22.58"/>
      <rect x="6619.68" y="-2189.87" width="22.58" height="22.58"/>
      <rect x="6642.26" y="-2189.87" width="22.58" height="22.58"/>
      <rect x="5581.09" y="-2167.29" width="22.58" height="22.58"/>
      <rect x="5626.25" y="-2167.29" width="22.58" height="22.58"/>
      <rect x="5648.82" y="-2167.29" width="22.58" height="22.58"/>
      <rect x="5716.56" y="-2167.29" width="22.58" height="22.58"/>
      <rect x="5739.14" y="-2167.29" width="22.58" height="22.58"/>
      <rect x="5784.29" y="-2167.29" width="22.58" height="22.58"/>
      <rect x="5806.87" y="-2167.29" width="22.58" height="22.58"/>
      <rect x="5874.61" y="-2167.29" width="22.58" height="22.58"/>
      <rect x="5919.76" y="-2167.29" width="22.58" height="22.58"/>
      <rect x="5964.92" y="-2167.29" width="22.58" height="22.58"/>
      <rect x="5987.5" y="-2167.29" width="22.58" height="22.58"/>
      <rect x="6010.07" y="-2167.29" width="22.58" height="22.58"/>
      <rect x="6122.96" y="-2167.29" width="22.58" height="22.58"/>
      <rect x="6168.12" y="-2167.29" width="22.58" height="22.58"/>
      <rect x="6190.7" y="-2167.29" width="22.58" height="22.58"/>
      <rect x="6213.28" y="-2167.29" width="22.58" height="22.58"/>
      <rect x="6281.01" y="-2167.29" width="22.58" height="22.58"/>
      <rect x="6303.59" y="-2167.29" width="22.58" height="22.58"/>
      <rect x="6371.32" y="-2167.29" width="22.58" height="22.58"/>
      <rect x="6529.37" y="-2167.29" width="22.58" height="22.58"/>
      <rect x="6551.95" y="-2167.29" width="22.58" height="22.58"/>
      <rect x="6597.11" y="-2167.29" width="22.58" height="22.58"/>
      <rect x="6619.68" y="-2167.29" width="22.58" height="22.58"/>
      <rect x="6664.84" y="-2167.29" width="22.58" height="22.58"/>
      <rect x="5581.09" y="-2144.71" width="22.58" height="22.58"/>
      <rect x="5626.25" y="-2144.71" width="22.58" height="22.58"/>
      <rect x="5671.4" y="-2144.71" width="22.58" height="22.58"/>
      <rect x="5784.29" y="-2144.71" width="22.58" height="22.58"/>
      <rect x="5806.87" y="-2144.71" width="22.58" height="22.58"/>
      <rect x="5852.03" y="-2144.71" width="22.58" height="22.58"/>
      <rect x="5897.18" y="-2144.71" width="22.58" height="22.58"/>
      <rect x="5919.76" y="-2144.71" width="22.58" height="22.58"/>
      <rect x="5942.34" y="-2144.71" width="22.58" height="22.58"/>
      <rect x="5964.92" y="-2144.71" width="22.58" height="22.58"/>
      <rect x="5987.5" y="-2144.71" width="22.58" height="22.58"/>
      <rect x="6055.23" y="-2144.71" width="22.58" height="22.58"/>
      <rect x="6077.81" y="-2144.71" width="22.58" height="22.58"/>
      <rect x="6122.96" y="-2144.71" width="22.58" height="22.58"/>
      <rect x="6235.86" y="-2144.71" width="22.58" height="22.58"/>
      <rect x="6348.75" y="-2144.71" width="22.58" height="22.58"/>
      <rect x="6371.32" y="-2144.71" width="22.58" height="22.58"/>
      <rect x="6439.06" y="-2144.71" width="22.58" height="22.58"/>
      <rect x="6461.64" y="-2144.71" width="22.58" height="22.58"/>
      <rect x="6484.22" y="-2144.71" width="22.58" height="22.58"/>
      <rect x="6551.95" y="-2144.71" width="22.58" height="22.58"/>
      <rect x="6574.53" y="-2144.71" width="22.58" height="22.58"/>
      <rect x="6597.11" y="-2144.71" width="22.58" height="22.58"/>
      <rect x="6642.26" y="-2144.71" width="22.58" height="22.58"/>
      <rect x="6664.84" y="-2144.71" width="22.58" height="22.58"/>
      <rect x="5581.09" y="-2122.13" width="22.58" height="22.58"/>
      <rect x="5603.67" y="-2122.13" width="22.58" height="22.58"/>
      <rect x="5626.25" y="-2122.13" width="22.58" height="22.58"/>
      <rect x="5693.98" y="-2122.13" width="22.58" height="22.58"/>
      <rect x="5716.56" y="-2122.13" width="22.58" height="22.58"/>
      <rect x="5739.14" y="-2122.13" width="22.58" height="22.58"/>
      <rect x="5806.87" y="-2122.13" width="22.58" height="22.58"/>
      <rect x="5852.03" y="-2122.13" width="22.58" height="22.58"/>
      <rect x="5987.5" y="-2122.13" width="22.58" height="22.58"/>
      <rect x="6032.65" y="-2122.13" width="22.58" height="22.58"/>
      <rect x="6100.39" y="-2122.13" width="22.58" height="22.58"/>
      <rect x="6145.54" y="-2122.13" width="22.58" height="22.58"/>
      <rect x="6168.12" y="-2122.13" width="22.58" height="22.58"/>
      <rect x="6281.01" y="-2122.13" width="22.58" height="22.58"/>
      <rect x="6326.17" y="-2122.13" width="22.58" height="22.58"/>
      <rect x="6393.9" y="-2122.13" width="22.58" height="22.58"/>
      <rect x="6461.64" y="-2122.13" width="22.58" height="22.58"/>
      <rect x="6484.22" y="-2122.13" width="22.58" height="22.58"/>
      <rect x="6506.79" y="-2122.13" width="22.58" height="22.58"/>
      <rect x="6574.53" y="-2122.13" width="22.58" height="22.58"/>
      <rect x="6597.11" y="-2122.13" width="22.58" height="22.58"/>
      <rect x="5581.09" y="-2099.56" width="22.58" height="22.58"/>
      <rect x="5648.82" y="-2099.56" width="22.58" height="22.58"/>
      <rect x="5852.03" y="-2099.56" width="22.58" height="22.58"/>
      <rect x="5874.61" y="-2099.56" width="22.58" height="22.58"/>
      <rect x="5919.76" y="-2099.56" width="22.58" height="22.58"/>
      <rect x="5942.34" y="-2099.56" width="22.58" height="22.58"/>
      <rect x="5964.92" y="-2099.56" width="22.58" height="22.58"/>
      <rect x="5987.5" y="-2099.56" width="22.58" height="22.58"/>
      <rect x="6010.07" y="-2099.56" width="22.58" height="22.58"/>
      <rect x="6032.65" y="-2099.56" width="22.58" height="22.58"/>
      <rect x="6055.23" y="-2099.56" width="22.58" height="22.58"/>
      <rect x="6077.81" y="-2099.56" width="22.58" height="22.58"/>
      <rect x="6122.96" y="-2099.56" width="22.58" height="22.58"/>
      <rect x="6145.54" y="-2099.56" width="22.58" height="22.58"/>
      <rect x="6168.12" y="-2099.56" width="22.58" height="22.58"/>
      <rect x="6235.86" y="-2099.56" width="22.58" height="22.58"/>
      <rect x="6281.01" y="-2099.56" width="22.58" height="22.58"/>
      <rect x="6303.59" y="-2099.56" width="22.58" height="22.58"/>
      <rect x="6348.75" y="-2099.56" width="22.58" height="22.58"/>
      <rect x="6371.32" y="-2099.56" width="22.58" height="22.58"/>
      <rect x="6393.9" y="-2099.56" width="22.58" height="22.58"/>
      <rect x="6416.48" y="-2099.56" width="22.58" height="22.58"/>
      <rect x="6439.06" y="-2099.56" width="22.58" height="22.58"/>
      <rect x="6484.22" y="-2099.56" width="22.58" height="22.58"/>
      <rect x="6506.79" y="-2099.56" width="22.58" height="22.58"/>
      <rect x="6551.95" y="-2099.56" width="22.58" height="22.58"/>
      <rect x="6574.53" y="-2099.56" width="22.58" height="22.58"/>
      <rect x="6597.11" y="-2099.56" width="22.58" height="22.58"/>
      <rect x="6619.68" y="-2099.56" width="22.58" height="22.58"/>
      <rect x="5603.67" y="-2076.98" width="22.58" height="22.58"/>
      <rect x="5648.82" y="-2076.98" width="22.58" height="22.58"/>
      <rect x="5693.98" y="-2076.98" width="22.58" height="22.58"/>
      <rect x="5716.56" y="-2076.98" width="22.58" height="22.58"/>
      <rect x="5806.87" y="-2076.98" width="22.58" height="22.58"/>
      <rect x="5852.03" y="-2076.98" width="22.58" height="22.58"/>
      <rect x="5897.18" y="-2076.98" width="22.58" height="22.58"/>
      <rect x="5942.34" y="-2076.98" width="22.58" height="22.58"/>
      <rect x="5964.92" y="-2076.98" width="22.58" height="22.58"/>
      <rect x="6032.65" y="-2076.98" width="22.58" height="22.58"/>
      <rect x="6055.23" y="-2076.98" width="22.58" height="22.58"/>
      <rect x="6077.81" y="-2076.98" width="22.58" height="22.58"/>
      <rect x="6100.39" y="-2076.98" width="22.58" height="22.58"/>
      <rect x="6122.96" y="-2076.98" width="22.58" height="22.58"/>
      <rect x="6168.12" y="-2076.98" width="22.58" height="22.58"/>
      <rect x="6213.28" y="-2076.98" width="22.58" height="22.58"/>
      <rect x="6235.86" y="-2076.98" width="22.58" height="22.58"/>
      <rect x="6258.43" y="-2076.98" width="22.58" height="22.58"/>
      <rect x="6303.59" y="-2076.98" width="22.58" height="22.58"/>
      <rect x="6348.75" y="-2076.98" width="22.58" height="22.58"/>
      <rect x="6371.32" y="-2076.98" width="22.58" height="22.58"/>
      <rect x="6416.48" y="-2076.98" width="22.58" height="22.58"/>
      <rect x="6484.22" y="-2076.98" width="22.58" height="22.58"/>
      <rect x="6506.79" y="-2076.98" width="22.58" height="22.58"/>
      <rect x="6529.37" y="-2076.98" width="22.58" height="22.58"/>
      <rect x="6597.11" y="-2076.98" width="22.58" height="22.58"/>
      <rect x="6664.84" y="-2076.98" width="22.58" height="22.58"/>
      <rect x="5581.09" y="-2054.4" width="22.58" height="22.58"/>
      <rect x="5626.25" y="-2054.4" width="22.58" height="22.58"/>
      <rect x="5648.82" y="-2054.4" width="22.58" height="22.58"/>
      <rect x="5671.4" y="-2054.4" width="22.58" height="22.58"/>
      <rect x="5693.98" y="-2054.4" width="22.58" height="22.58"/>
      <rect x="5784.29" y="-2054.4" width="22.58" height="22.58"/>
      <rect x="5806.87" y="-2054.4" width="22.58" height="22.58"/>
      <rect x="5829.45" y="-2054.4" width="22.58" height="22.58"/>
      <rect x="5852.03" y="-2054.4" width="22.58" height="22.58"/>
      <rect x="5919.76" y="-2054.4" width="22.58" height="22.58"/>
      <rect x="5964.92" y="-2054.4" width="22.58" height="22.58"/>
      <rect x="6010.07" y="-2054.4" width="22.58" height="22.58"/>
      <rect x="6077.81" y="-2054.4" width="22.58" height="22.58"/>
      <rect x="6100.39" y="-2054.4" width="22.58" height="22.58"/>
      <rect x="6122.96" y="-2054.4" width="22.58" height="22.58"/>
      <rect x="6168.12" y="-2054.4" width="22.58" height="22.58"/>
      <rect x="6235.86" y="-2054.4" width="22.58" height="22.58"/>
      <rect x="6258.43" y="-2054.4" width="22.58" height="22.58"/>
      <rect x="6281.01" y="-2054.4" width="22.58" height="22.58"/>
      <rect x="6303.59" y="-2054.4" width="22.58" height="22.58"/>
      <rect x="6326.17" y="-2054.4" width="22.58" height="22.58"/>
      <rect x="6371.32" y="-2054.4" width="22.58" height="22.58"/>
      <rect x="6416.48" y="-2054.4" width="22.58" height="22.58"/>
      <rect x="6461.64" y="-2054.4" width="22.58" height="22.58"/>
      <rect x="6484.22" y="-2054.4" width="22.58" height="22.58"/>
      <rect x="6506.79" y="-2054.4" width="22.58" height="22.58"/>
      <rect x="6551.95" y="-2054.4" width="22.58" height="22.58"/>
      <rect x="6597.11" y="-2054.4" width="22.58" height="22.58"/>
      <rect x="6619.68" y="-2054.4" width="22.58" height="22.58"/>
      <rect x="5581.09" y="-2031.82" width="22.58" height="22.58"/>
      <rect x="5603.67" y="-2031.82" width="22.58" height="22.58"/>
      <rect x="5648.82" y="-2031.82" width="22.58" height="22.58"/>
      <rect x="5693.98" y="-2031.82" width="22.58" height="22.58"/>
      <rect x="5716.56" y="-2031.82" width="22.58" height="22.58"/>
      <rect x="5739.14" y="-2031.82" width="22.58" height="22.58"/>
      <rect x="5942.34" y="-2031.82" width="22.58" height="22.58"/>
      <rect x="5964.92" y="-2031.82" width="22.58" height="22.58"/>
      <rect x="6055.23" y="-2031.82" width="22.58" height="22.58"/>
      <rect x="6100.39" y="-2031.82" width="22.58" height="22.58"/>
      <rect x="6145.54" y="-2031.82" width="22.58" height="22.58"/>
      <rect x="6190.7" y="-2031.82" width="22.58" height="22.58"/>
      <rect x="6213.28" y="-2031.82" width="22.58" height="22.58"/>
      <rect x="6235.86" y="-2031.82" width="22.58" height="22.58"/>
      <rect x="6281.01" y="-2031.82" width="22.58" height="22.58"/>
      <rect x="6303.59" y="-2031.82" width="22.58" height="22.58"/>
      <rect x="6371.32" y="-2031.82" width="22.58" height="22.58"/>
      <rect x="6393.9" y="-2031.82" width="22.58" height="22.58"/>
      <rect x="6416.48" y="-2031.82" width="22.58" height="22.58"/>
      <rect x="6439.06" y="-2031.82" width="22.58" height="22.58"/>
      <rect x="6461.64" y="-2031.82" width="22.58" height="22.58"/>
      <rect x="6642.26" y="-2031.82" width="22.58" height="22.58"/>
      <rect x="6664.84" y="-2031.82" width="22.58" height="22.58"/>
      <rect x="5581.09" y="-2009.24" width="22.58" height="22.58"/>
      <rect x="5603.67" y="-2009.24" width="22.58" height="22.58"/>
      <rect x="5671.4" y="-2009.24" width="22.58" height="22.58"/>
      <rect x="5761.71" y="-2009.24" width="22.58" height="22.58"/>
      <rect x="5784.29" y="-2009.24" width="22.58" height="22.58"/>
      <rect x="5806.87" y="-2009.24" width="22.58" height="22.58"/>
      <rect x="5942.34" y="-2009.24" width="22.58" height="22.58"/>
      <rect x="5987.5" y="-2009.24" width="22.58" height="22.58"/>
      <rect x="6032.65" y="-2009.24" width="22.58" height="22.58"/>
      <rect x="6100.39" y="-2009.24" width="22.58" height="22.58"/>
      <rect x="6122.96" y="-2009.24" width="22.58" height="22.58"/>
      <rect x="6145.54" y="-2009.24" width="22.58" height="22.58"/>
      <rect x="6168.12" y="-2009.24" width="22.58" height="22.58"/>
      <rect x="6258.43" y="-2009.24" width="22.58" height="22.58"/>
      <rect x="6281.01" y="-2009.24" width="22.58" height="22.58"/>
      <rect x="6303.59" y="-2009.24" width="22.58" height="22.58"/>
      <rect x="6326.17" y="-2009.24" width="22.58" height="22.58"/>
      <rect x="6371.32" y="-2009.24" width="22.58" height="22.58"/>
      <rect x="6393.9" y="-2009.24" width="22.58" height="22.58"/>
      <rect x="6439.06" y="-2009.24" width="22.58" height="22.58"/>
      <rect x="6484.22" y="-2009.24" width="22.58" height="22.58"/>
      <rect x="6529.37" y="-2009.24" width="22.58" height="22.58"/>
      <rect x="6551.95" y="-2009.24" width="22.58" height="22.58"/>
      <rect x="6574.53" y="-2009.24" width="22.58" height="22.58"/>
      <rect x="6597.11" y="-2009.24" width="22.58" height="22.58"/>
      <rect x="6642.26" y="-2009.24" width="22.58" height="22.58"/>
      <rect x="5603.67" y="-1986.67" width="22.58" height="22.58"/>
      <rect x="5693.98" y="-1986.67" width="22.58" height="22.58"/>
      <rect x="5716.56" y="-1986.67" width="22.58" height="22.58"/>
      <rect x="5739.14" y="-1986.67" width="22.58" height="22.58"/>
      <rect x="5806.87" y="-1986.67" width="22.58" height="22.58"/>
      <rect x="5829.45" y="-1986.67" width="22.58" height="22.58"/>
      <rect x="5852.03" y="-1986.67" width="22.58" height="22.58"/>
      <rect x="5942.34" y="-1986.67" width="22.58" height="22.58"/>
      <rect x="5964.92" y="-1986.67" width="22.58" height="22.58"/>
      <rect x="5987.5" y="-1986.67" width="22.58" height="22.58"/>
      <rect x="6145.54" y="-1986.67" width="22.58" height="22.58"/>
      <rect x="6190.7" y="-1986.67" width="22.58" height="22.58"/>
      <rect x="6213.28" y="-1986.67" width="22.58" height="22.58"/>
      <rect x="6326.17" y="-1986.67" width="22.58" height="22.58"/>
      <rect x="6416.48" y="-1986.67" width="22.58" height="22.58"/>
      <rect x="6439.06" y="-1986.67" width="22.58" height="22.58"/>
      <rect x="6529.37" y="-1986.67" width="22.58" height="22.58"/>
      <rect x="6574.53" y="-1986.67" width="22.58" height="22.58"/>
      <rect x="6642.26" y="-1986.67" width="22.58" height="22.58"/>
      <rect x="6664.84" y="-1986.67" width="22.58" height="22.58"/>
      <rect x="5603.67" y="-1964.09" width="22.58" height="22.58"/>
      <rect x="5626.25" y="-1964.09" width="22.58" height="22.58"/>
      <rect x="5648.82" y="-1964.09" width="22.58" height="22.58"/>
      <rect x="5739.14" y="-1964.09" width="22.58" height="22.58"/>
      <rect x="5852.03" y="-1964.09" width="22.58" height="22.58"/>
      <rect x="5942.34" y="-1964.09" width="22.58" height="22.58"/>
      <rect x="5987.5" y="-1964.09" width="22.58" height="22.58"/>
      <rect x="6010.07" y="-1964.09" width="22.58" height="22.58"/>
      <rect x="6077.81" y="-1964.09" width="22.58" height="22.58"/>
      <rect x="6100.39" y="-1964.09" width="22.58" height="22.58"/>
      <rect x="6122.96" y="-1964.09" width="22.58" height="22.58"/>
      <rect x="6145.54" y="-1964.09" width="22.58" height="22.58"/>
      <rect x="6190.7" y="-1964.09" width="22.58" height="22.58"/>
      <rect x="6303.59" y="-1964.09" width="22.58" height="22.58"/>
      <rect x="6326.17" y="-1964.09" width="22.58" height="22.58"/>
      <rect x="6348.75" y="-1964.09" width="22.58" height="22.58"/>
      <rect x="6371.32" y="-1964.09" width="22.58" height="22.58"/>
      <rect x="6416.48" y="-1964.09" width="22.58" height="22.58"/>
      <rect x="6439.06" y="-1964.09" width="22.58" height="22.58"/>
      <rect x="6461.64" y="-1964.09" width="22.58" height="22.58"/>
      <rect x="6506.79" y="-1964.09" width="22.58" height="22.58"/>
      <rect x="6551.95" y="-1964.09" width="22.58" height="22.58"/>
      <rect x="6619.68" y="-1964.09" width="22.58" height="22.58"/>
      <rect x="6642.26" y="-1964.09" width="22.58" height="22.58"/>
      <rect x="5581.09" y="-1941.51" width="22.58" height="22.58"/>
      <rect x="5603.67" y="-1941.51" width="22.58" height="22.58"/>
      <rect x="5626.25" y="-1941.51" width="22.58" height="22.58"/>
      <rect x="5716.56" y="-1941.51" width="22.58" height="22.58"/>
      <rect x="5784.29" y="-1941.51" width="22.58" height="22.58"/>
      <rect x="5806.87" y="-1941.51" width="22.58" height="22.58"/>
      <rect x="5829.45" y="-1941.51" width="22.58" height="22.58"/>
      <rect x="5852.03" y="-1941.51" width="22.58" height="22.58"/>
      <rect x="5874.61" y="-1941.51" width="22.58" height="22.58"/>
      <rect x="5897.18" y="-1941.51" width="22.58" height="22.58"/>
      <rect x="5919.76" y="-1941.51" width="22.58" height="22.58"/>
      <rect x="5942.34" y="-1941.51" width="22.58" height="22.58"/>
      <rect x="5964.92" y="-1941.51" width="22.58" height="22.58"/>
      <rect x="5987.5" y="-1941.51" width="22.58" height="22.58"/>
      <rect x="6010.07" y="-1941.51" width="22.58" height="22.58"/>
      <rect x="6077.81" y="-1941.51" width="22.58" height="22.58"/>
      <rect x="6100.39" y="-1941.51" width="22.58" height="22.58"/>
      <rect x="6122.96" y="-1941.51" width="22.58" height="22.58"/>
      <rect x="6145.54" y="-1941.51" width="22.58" height="22.58"/>
      <rect x="6168.12" y="-1941.51" width="22.58" height="22.58"/>
      <rect x="6190.7" y="-1941.51" width="22.58" height="22.58"/>
      <rect x="6258.43" y="-1941.51" width="22.58" height="22.58"/>
      <rect x="6281.01" y="-1941.51" width="22.58" height="22.58"/>
      <rect x="6303.59" y="-1941.51" width="22.58" height="22.58"/>
      <rect x="6371.32" y="-1941.51" width="22.58" height="22.58"/>
      <rect x="6393.9" y="-1941.51" width="22.58" height="22.58"/>
      <rect x="6439.06" y="-1941.51" width="22.58" height="22.58"/>
      <rect x="6461.64" y="-1941.51" width="22.58" height="22.58"/>
      <rect x="6484.22" y="-1941.51" width="22.58" height="22.58"/>
      <rect x="6506.79" y="-1941.51" width="22.58" height="22.58"/>
      <rect x="6529.37" y="-1941.51" width="22.58" height="22.58"/>
      <rect x="6551.95" y="-1941.51" width="22.58" height="22.58"/>
      <rect x="6574.53" y="-1941.51" width="22.58" height="22.58"/>
      <rect x="6597.11" y="-1941.51" width="22.58" height="22.58"/>
      <rect x="6619.68" y="-1941.51" width="22.58" height="22.58"/>
      <rect x="5761.71" y="-1918.93" width="22.58" height="22.58"/>
      <rect x="5784.29" y="-1918.93" width="22.58" height="22.58"/>
      <rect x="5806.87" y="-1918.93" width="22.58" height="22.58"/>
      <rect x="5897.18" y="-1918.93" width="22.58" height="22.58"/>
      <rect x="5919.76" y="-1918.93" width="22.58" height="22.58"/>
      <rect x="5942.34" y="-1918.93" width="22.58" height="22.58"/>
      <rect x="5987.5" y="-1918.93" width="22.58" height="22.58"/>
      <rect x="6010.07" y="-1918.93" width="22.58" height="22.58"/>
      <rect x="6077.81" y="-1918.93" width="22.58" height="22.58"/>
      <rect x="6168.12" y="-1918.93" width="22.58" height="22.58"/>
      <rect x="6190.7" y="-1918.93" width="22.58" height="22.58"/>
      <rect x="6235.86" y="-1918.93" width="22.58" height="22.58"/>
      <rect x="6258.43" y="-1918.93" width="22.58" height="22.58"/>
      <rect x="6303.59" y="-1918.93" width="22.58" height="22.58"/>
      <rect x="6348.75" y="-1918.93" width="22.58" height="22.58"/>
      <rect x="6371.32" y="-1918.93" width="22.58" height="22.58"/>
      <rect x="6393.9" y="-1918.93" width="22.58" height="22.58"/>
      <rect x="6461.64" y="-1918.93" width="22.58" height="22.58"/>
      <rect x="6484.22" y="-1918.93" width="22.58" height="22.58"/>
      <rect x="6574.53" y="-1918.93" width="22.58" height="22.58"/>
      <rect x="6619.68" y="-1918.93" width="22.58" height="22.58"/>
      <rect x="6642.26" y="-1918.93" width="22.58" height="22.58"/>
      <rect x="5761.71" y="-1896.35" width="22.58" height="22.58"/>
      <rect x="5784.29" y="-1896.35" width="22.58" height="22.58"/>
      <rect x="5806.87" y="-1896.35" width="22.58" height="22.58"/>
      <rect x="5897.18" y="-1896.35" width="22.58" height="22.58"/>
      <rect x="5919.76" y="-1896.35" width="22.58" height="22.58"/>
      <rect x="6032.65" y="-1896.35" width="22.58" height="22.58"/>
      <rect x="6077.81" y="-1896.35" width="22.58" height="22.58"/>
      <rect x="6122.96" y="-1896.35" width="22.58" height="22.58"/>
      <rect x="6168.12" y="-1896.35" width="22.58" height="22.58"/>
      <rect x="6213.28" y="-1896.35" width="22.58" height="22.58"/>
      <rect x="6281.01" y="-1896.35" width="22.58" height="22.58"/>
      <rect x="6303.59" y="-1896.35" width="22.58" height="22.58"/>
      <rect x="6371.32" y="-1896.35" width="22.58" height="22.58"/>
      <rect x="6393.9" y="-1896.35" width="22.58" height="22.58"/>
      <rect x="6484.22" y="-1896.35" width="22.58" height="22.58"/>
      <rect x="6529.37" y="-1896.35" width="22.58" height="22.58"/>
      <rect x="6574.53" y="-1896.35" width="22.58" height="22.58"/>
      <rect x="6664.84" y="-1896.35" width="22.58" height="22.58"/>
      <rect x="5761.71" y="-1873.77" width="22.58" height="22.58"/>
      <rect x="5784.29" y="-1873.77" width="22.58" height="22.58"/>
      <rect x="5806.87" y="-1873.77" width="22.58" height="22.58"/>
      <rect x="5919.76" y="-1873.77" width="22.58" height="22.58"/>
      <rect x="5964.92" y="-1873.77" width="22.58" height="22.58"/>
      <rect x="6032.65" y="-1873.77" width="22.58" height="22.58"/>
      <rect x="6077.81" y="-1873.77" width="22.58" height="22.58"/>
      <rect x="6168.12" y="-1873.77" width="22.58" height="22.58"/>
      <rect x="6190.7" y="-1873.77" width="22.58" height="22.58"/>
      <rect x="6213.28" y="-1873.77" width="22.58" height="22.58"/>
      <rect x="6258.43" y="-1873.77" width="22.58" height="22.58"/>
      <rect x="6281.01" y="-1873.77" width="22.58" height="22.58"/>
      <rect x="6326.17" y="-1873.77" width="22.58" height="22.58"/>
      <rect x="6371.32" y="-1873.77" width="22.58" height="22.58"/>
      <rect x="6439.06" y="-1873.77" width="22.58" height="22.58"/>
      <rect x="6461.64" y="-1873.77" width="22.58" height="22.58"/>
      <rect x="6484.22" y="-1873.77" width="22.58" height="22.58"/>
      <rect x="6574.53" y="-1873.77" width="22.58" height="22.58"/>
      <rect x="6642.26" y="-1873.77" width="22.58" height="22.58"/>
      <rect x="5761.71" y="-1851.2" width="22.58" height="22.58"/>
      <rect x="5852.03" y="-1851.2" width="22.58" height="22.58"/>
      <rect x="5874.61" y="-1851.2" width="22.58" height="22.58"/>
      <rect x="5942.34" y="-1851.2" width="22.58" height="22.58"/>
      <rect x="6055.23" y="-1851.2" width="22.58" height="22.58"/>
      <rect x="6077.81" y="-1851.2" width="22.58" height="22.58"/>
      <rect x="6100.39" y="-1851.2" width="22.58" height="22.58"/>
      <rect x="6122.96" y="-1851.2" width="22.58" height="22.58"/>
      <rect x="6145.54" y="-1851.2" width="22.58" height="22.58"/>
      <rect x="6168.12" y="-1851.2" width="22.58" height="22.58"/>
      <rect x="6213.28" y="-1851.2" width="22.58" height="22.58"/>
      <rect x="6235.86" y="-1851.2" width="22.58" height="22.58"/>
      <rect x="6371.32" y="-1851.2" width="22.58" height="22.58"/>
      <rect x="6393.9" y="-1851.2" width="22.58" height="22.58"/>
      <rect x="6484.22" y="-1851.2" width="22.58" height="22.58"/>
      <rect x="6506.79" y="-1851.2" width="22.58" height="22.58"/>
      <rect x="6529.37" y="-1851.2" width="22.58" height="22.58"/>
      <rect x="6551.95" y="-1851.2" width="22.58" height="22.58"/>
      <rect x="6574.53" y="-1851.2" width="22.58" height="22.58"/>
      <rect x="6597.11" y="-1851.2" width="22.58" height="22.58"/>
      <rect x="6664.84" y="-1851.2" width="22.58" height="22.58"/>
      <rect x="5761.71" y="-1828.62" width="22.58" height="22.58"/>
      <rect x="5829.45" y="-1828.62" width="22.58" height="22.58"/>
      <rect x="5852.03" y="-1828.62" width="22.58" height="22.58"/>
      <rect x="5874.61" y="-1828.62" width="22.58" height="22.58"/>
      <rect x="5897.18" y="-1828.62" width="22.58" height="22.58"/>
      <rect x="5919.76" y="-1828.62" width="22.58" height="22.58"/>
      <rect x="5942.34" y="-1828.62" width="22.58" height="22.58"/>
      <rect x="5964.92" y="-1828.62" width="22.58" height="22.58"/>
      <rect x="6032.65" y="-1828.62" width="22.58" height="22.58"/>
      <rect x="6055.23" y="-1828.62" width="22.58" height="22.58"/>
      <rect x="6145.54" y="-1828.62" width="22.58" height="22.58"/>
      <rect x="6190.7" y="-1828.62" width="22.58" height="22.58"/>
      <rect x="6258.43" y="-1828.62" width="22.58" height="22.58"/>
      <rect x="6281.01" y="-1828.62" width="22.58" height="22.58"/>
      <rect x="6303.59" y="-1828.62" width="22.58" height="22.58"/>
      <rect x="6348.75" y="-1828.62" width="22.58" height="22.58"/>
      <rect x="6371.32" y="-1828.62" width="22.58" height="22.58"/>
      <rect x="6393.9" y="-1828.62" width="22.58" height="22.58"/>
      <rect x="6439.06" y="-1828.62" width="22.58" height="22.58"/>
      <rect x="6506.79" y="-1828.62" width="22.58" height="22.58"/>
      <rect x="6529.37" y="-1828.62" width="22.58" height="22.58"/>
      <rect x="6551.95" y="-1828.62" width="22.58" height="22.58"/>
      <rect x="6619.68" y="-1828.62" width="22.58" height="22.58"/>
      <rect x="6664.84" y="-1828.62" width="22.58" height="22.58"/>
      <rect x="5784.29" y="-1806.04" width="22.58" height="22.58"/>
      <rect x="5874.61" y="-1806.04" width="22.58" height="22.58"/>
      <rect x="5897.18" y="-1806.04" width="22.58" height="22.58"/>
      <rect x="5942.34" y="-1806.04" width="22.58" height="22.58"/>
      <rect x="5987.5" y="-1806.04" width="22.58" height="22.58"/>
      <rect x="6010.07" y="-1806.04" width="22.58" height="22.58"/>
      <rect x="6032.65" y="-1806.04" width="22.58" height="22.58"/>
      <rect x="6055.23" y="-1806.04" width="22.58" height="22.58"/>
      <rect x="6100.39" y="-1806.04" width="22.58" height="22.58"/>
      <rect x="6122.96" y="-1806.04" width="22.58" height="22.58"/>
      <rect x="6213.28" y="-1806.04" width="22.58" height="22.58"/>
      <rect x="6281.01" y="-1806.04" width="22.58" height="22.58"/>
      <rect x="6348.75" y="-1806.04" width="22.58" height="22.58"/>
      <rect x="6393.9" y="-1806.04" width="22.58" height="22.58"/>
      <rect x="6416.48" y="-1806.04" width="22.58" height="22.58"/>
      <rect x="6529.37" y="-1806.04" width="22.58" height="22.58"/>
      <rect x="6551.95" y="-1806.04" width="22.58" height="22.58"/>
      <rect x="6574.53" y="-1806.04" width="22.58" height="22.58"/>
      <rect x="6642.26" y="-1806.04" width="22.58" height="22.58"/>
      <rect x="5784.29" y="-1783.46" width="22.58" height="22.58"/>
      <rect x="5806.87" y="-1783.46" width="22.58" height="22.58"/>
      <rect x="5829.45" y="-1783.46" width="22.58" height="22.58"/>
      <rect x="5874.61" y="-1783.46" width="22.58" height="22.58"/>
      <rect x="5987.5" y="-1783.46" width="22.58" height="22.58"/>
      <rect x="6100.39" y="-1783.46" width="22.58" height="22.58"/>
      <rect x="6122.96" y="-1783.46" width="22.58" height="22.58"/>
      <rect x="6145.54" y="-1783.46" width="22.58" height="22.58"/>
      <rect x="6168.12" y="-1783.46" width="22.58" height="22.58"/>
      <rect x="6190.7" y="-1783.46" width="22.58" height="22.58"/>
      <rect x="6213.28" y="-1783.46" width="22.58" height="22.58"/>
      <rect x="6235.86" y="-1783.46" width="22.58" height="22.58"/>
      <rect x="6258.43" y="-1783.46" width="22.58" height="22.58"/>
      <rect x="6281.01" y="-1783.46" width="22.58" height="22.58"/>
      <rect x="6303.59" y="-1783.46" width="22.58" height="22.58"/>
      <rect x="6326.17" y="-1783.46" width="22.58" height="22.58"/>
      <rect x="6371.32" y="-1783.46" width="22.58" height="22.58"/>
      <rect x="6461.64" y="-1783.46" width="22.58" height="22.58"/>
      <rect x="6529.37" y="-1783.46" width="22.58" height="22.58"/>
      <rect x="6597.11" y="-1783.46" width="22.58" height="22.58"/>
      <rect x="6619.68" y="-1783.46" width="22.58" height="22.58"/>
      <rect x="6642.26" y="-1783.46" width="22.58" height="22.58"/>
      <rect x="6664.84" y="-1783.46" width="22.58" height="22.58"/>
      <rect x="5761.71" y="-1760.88" width="22.58" height="22.58"/>
      <rect x="5784.29" y="-1760.88" width="22.58" height="22.58"/>
      <rect x="5806.87" y="-1760.88" width="22.58" height="22.58"/>
      <rect x="5829.45" y="-1760.88" width="22.58" height="22.58"/>
      <rect x="5852.03" y="-1760.88" width="22.58" height="22.58"/>
      <rect x="5942.34" y="-1760.88" width="22.58" height="22.58"/>
      <rect x="6077.81" y="-1760.88" width="22.58" height="22.58"/>
      <rect x="6122.96" y="-1760.88" width="22.58" height="22.58"/>
      <rect x="6145.54" y="-1760.88" width="22.58" height="22.58"/>
      <rect x="6168.12" y="-1760.88" width="22.58" height="22.58"/>
      <rect x="6190.7" y="-1760.88" width="22.58" height="22.58"/>
      <rect x="6213.28" y="-1760.88" width="22.58" height="22.58"/>
      <rect x="6258.43" y="-1760.88" width="22.58" height="22.58"/>
      <rect x="6281.01" y="-1760.88" width="22.58" height="22.58"/>
      <rect x="6303.59" y="-1760.88" width="22.58" height="22.58"/>
      <rect x="6348.75" y="-1760.88" width="22.58" height="22.58"/>
      <rect x="6393.9" y="-1760.88" width="22.58" height="22.58"/>
      <rect x="6416.48" y="-1760.88" width="22.58" height="22.58"/>
      <rect x="6551.95" y="-1760.88" width="22.58" height="22.58"/>
      <rect x="6574.53" y="-1760.88" width="22.58" height="22.58"/>
      <rect x="6664.84" y="-1760.88" width="22.58" height="22.58"/>
      <g>
        <rect class="st11" x="5604.8" y="-2820.93" width="110.63" height="110.63"/>
        <path d="M5715.43-2844.63h-134.34v158.05h158.05v-158.05h-23.71ZM5715.43-2710.29h-110.63v-110.63h110.63v110.63Z"/>
      </g>
      <g>
        <rect class="st11" x="6553.08" y="-2820.93" width="110.63" height="110.63"/>
        <path d="M6663.71-2844.63h-134.34v158.05h158.05v-158.05h-23.71ZM6663.71-2710.29h-110.63v-110.63h110.63v110.63Z"/>
      </g>
      <g>
        <rect class="st11" x="5604.8" y="-1872.65" width="110.63" height="110.63"/>
        <path d="M5715.43-1896.35h-134.34v158.05h158.05v-158.05h-23.71ZM5715.43-1762.01h-110.63v-110.63h110.63v110.63Z"/>
      </g>
      <rect x="5626.25" y="-2799.48" width="67.73" height="67.73"/>
      <rect x="6574.53" y="-2799.48" width="67.73" height="67.73"/>
      <rect x="5626.25" y="-1851.2" width="67.73" height="67.73"/>
    </g>
    <line class="st12" x1="5111.66" y1="579.63" x2="8263.17" y2="579.63"/>
  </g>
  <g id="_Слой_2" data-name="Слой_2" class="st8">
    <text class="st3" transform="translate(112.01 2576.98)"><tspan x="0" y="0">Гостиница: «Отель 2.0»</tspan><tspan x="-219.26" y="69.6">ИП Сионкова Екатерина Александровна</tspan><tspan x="-308.58" y="139.2">ОГРНИП: 326784700088102 ИНН: 352836102746</tspan><tspan x="-89.96" y="208.8">Режим работы: круглосуточно</tspan></text>
  </g>
</svg>